#N canvas 71 2 395 263 10;
#X obj 43 86 abs;
#X obj 43 109 i;
#X obj 43 132 min 255;
#X obj 43 155 max 0;
#X obj 225 35 inlet;
#X obj 316 35 inlet;
#X obj 43 35 inlet;
#X obj 134 35 inlet;
#X obj 43 191 outlet;
#X obj 43 63 expr ((($f4 - $f3) * ($f1 / $f2)) + $f3) - 255;
#X connect 0 0 1 0;
#X connect 1 0 2 0;
#X connect 2 0 3 0;
#X connect 3 0 8 0;
#X connect 4 0 9 2;
#X connect 5 0 9 3;
#X connect 6 0 9 0;
#X connect 7 0 9 1;
#X connect 9 0 0 0;
