#N canvas 63 1 353 140 10;
#X declare -lib mrpeach;
#N canvas 303 40 1043 659 phrases-editor-gui 1;
#X restore 2 369 pd phrases-editor-gui;
#N canvas 467 14 517 441 phrases-gui-sender 0;
#X msg 87 154 vis 1 \, clear;
#X obj 176 15 list trim;
#X obj 176 -8 r phrases-editor-gui-object;
#X obj 11 -8 r phrases-grid-gui-object;
#X obj 11 15 list trim;
#X obj 212 154 phrases-gui-generator;
#X text 10 -26 Receive GUI objects sent by phrases-gui-generator;
#X obj 60 87 t b b;
#X text 90 139 Clear old GUI;
#X obj 60 64 r phrases-gui-bang;
#X obj 11 193 s pd-phrases-grid-gui;
#X obj 176 193 s pd-phrases-editor-gui;
#X obj 12 218 r phrases-gui-color-startup-bang;
#X obj 58 347 s phrases-commands;
#X msg 58 300 list SETUP_GRID_GUI;
#X msg 78 280 list UPDATE_EDITOR_GUI;
#X msg 31 320 list LOAD;
#X obj 257 64 r phrases-prefs-in;
#X obj 12 243 t b b b;
#X connect 0 0 10 0;
#X connect 0 0 11 0;
#X connect 1 0 11 0;
#X connect 2 0 1 0;
#X connect 3 0 4 0;
#X connect 4 0 10 0;
#X connect 7 0 5 0;
#X connect 7 1 0 0;
#X connect 9 0 7 0;
#X connect 12 0 18 0;
#X connect 14 0 13 0;
#X connect 15 0 13 0;
#X connect 16 0 13 0;
#X connect 17 0 5 1;
#X connect 18 0 15 0;
#X connect 18 1 16 0;
#X connect 18 2 14 0;
#X restore 2 350 pd phrases-gui-sender;
#N canvas 71 41 385 255 phrases-prefs 0;
#X obj 40 35 r phrases-prefs-bang;
#X obj 40 69 phrases-get-prefs;
#X connect 0 0 1 0;
#X restore 2 312 pd phrases-prefs;
#N canvas 366 112 406 362 phrases-bang-order 0;
#X obj 64 24 loadbang;
#X obj 111 135 s phrases-prefs-bang;
#X obj 95 154 s phrases-gui-bang;
#X obj 127 116 s phrases-metro-stop-bang;
#X obj 64 192 s phrases-metro-start-bang;
#X msg 22 24 bang;
#X obj 79 173 s phrases-gui-color-startup-bang;
#X obj 64 83 t b b b b b;
#X connect 0 0 7 0;
#X connect 5 0 7 0;
#X connect 7 0 4 0;
#X connect 7 1 6 0;
#X connect 7 2 2 0;
#X connect 7 3 1 0;
#X connect 7 4 3 0;
#X restore 2 331 pd phrases-bang-order;
#N canvas 58 0 518 531 phrases-tempo-generator 0;
#X obj 56 254 metro;
#X obj 83 136 /;
#X obj 142 109 *;
#X obj 56 278 bng 15 50 10 0 empty empty empty 0 -6 0 8 -258113 -228856
-1;
#X msg 83 109 60000;
#X floatatom 83 166 7 0 0 1 - - -;
#X obj 110 406 bng 15 200 50 0 empty empty empty 17 7 0 10 -4160 -257985
-257985;
#X obj 96 302 + 1;
#X obj 83 352 moses;
#X obj 110 379 t b b;
#X text 129 165 ms between tempo ticks;
#X floatatom 56 379 5 0 0 0 - - -;
#X obj 56 352 mod;
#X obj 83 77 t b f;
#X obj 123 77 t b b f;
#X obj 56 302 i 1;
#X obj 56 325 t f f;
#X obj 56 404 t b f;
#X text 55 487 Send tempo ticks only after updating ticknum;
#X obj 110 430 s phrases-gatebang;
#X obj 56 472 s phrases-tempobang;
#X obj 83 451 s phrases-ticknum;
#X obj 83 25 r phrases-bpm;
#X obj 123 53 r phrases-tpb;
#X obj 110 325 r phrases-gate;
#X obj 16 199 bng 15 250 50 0 empty phrases-metro-start-bang empty
17 7 0 10 -262144 -1 -1;
#X obj 106 199 bng 15 250 50 0 empty phrases-metro-stop-bang empty
17 7 0 10 -262144 -1 -1;
#X msg 56 227 stop;
#X text 32 197 r start;
#X text 122 197 r stop;
#X text 218 269 1-indexing is necessary here;
#X text 29 3 Generate properly spaced tempo ticks;
#X text 159 355 Launch bangs on gate ticks. / \; NOTE: Gatebangs are
sent before ticknum and tempobang \, / \; in order to allow timely
updates of activity on / \; tick 0 \, and transference whenever.;
#X msg 192 270 1;
#X msg 106 270 0;
#X obj 180 196 s phrases-tick-length;
#X connect 0 0 3 0;
#X connect 1 0 5 0;
#X connect 2 0 1 1;
#X connect 3 0 15 0;
#X connect 4 0 1 0;
#X connect 5 0 0 1;
#X connect 5 0 35 0;
#X connect 6 0 19 0;
#X connect 7 0 15 1;
#X connect 8 1 9 0;
#X connect 9 0 6 0;
#X connect 9 1 33 0;
#X connect 11 0 17 0;
#X connect 12 0 11 0;
#X connect 13 0 4 0;
#X connect 13 1 2 0;
#X connect 14 0 4 0;
#X connect 14 1 2 0;
#X connect 14 2 2 1;
#X connect 15 0 7 0;
#X connect 15 0 16 0;
#X connect 16 0 12 0;
#X connect 16 1 8 0;
#X connect 17 0 20 0;
#X connect 17 1 21 0;
#X connect 22 0 13 0;
#X connect 23 0 14 0;
#X connect 24 0 8 1;
#X connect 24 0 12 1;
#X connect 25 0 0 0;
#X connect 26 0 27 0;
#X connect 26 0 34 0;
#X connect 27 0 0 0;
#X connect 33 0 15 1;
#X connect 34 0 15 1;
#X restore 2 445 pd phrases-tempo-generator;
#N canvas 62 7 323 281 phrases-button-colorizer 0;
#X obj 48 28 r phrases-color-sender;
#X obj 177 90 phrases-makecolor;
#X obj 48 55 unpack s f f f f f f;
#X obj 84 140 f;
#X obj 67 90 phrases-makecolor;
#X obj 129 140 f;
#X obj 40 227 s;
#X msg 84 189 color \$1 \$2;
#X obj 84 164 pack 0 0;
#X obj 16 90 t b b s;
#X connect 0 0 2 0;
#X connect 1 0 5 1;
#X connect 2 0 9 0;
#X connect 2 1 4 0;
#X connect 2 2 4 1;
#X connect 2 3 4 2;
#X connect 2 4 1 0;
#X connect 2 5 1 1;
#X connect 2 6 1 2;
#X connect 3 0 8 0;
#X connect 4 0 3 1;
#X connect 5 0 8 1;
#X connect 7 0 6 0;
#X connect 8 0 7 0;
#X connect 9 0 3 0;
#X connect 9 1 5 0;
#X connect 9 2 6 1;
#X restore 2 407 pd phrases-button-colorizer;
#N canvas 316 0 403 556 phrases-keystroke-parser 0;
#X obj 69 28 keyname;
#X floatatom 69 54 5 0 0 0 - - -;
#X symbolatom 108 54 10 0 0 0 - - -;
#X obj 135 527 s phrases-metro-stop-bang;
#X obj 154 508 s phrases-metro-start-bang;
#X obj 69 79 pack f s;
#X obj 69 114 phrases-keychord;
#X symbolatom 9 167 20 0 0 0 - - -;
#X symbolatom 134 167 10 0 0 0 - - -;
#X obj 9 193 bng 15 250 50 0 empty empty empty 17 7 0 10 -262144 -1
-1;
#X obj 134 193 bng 15 250 50 0 empty empty empty 17 7 0 10 -262144
-1 -1;
#X obj 87 403 % 2;
#X obj 76 438 sel 0 1;
#X obj 60 403 + 1;
#X obj 265 195 s phrases-commands;
#X obj 69 252 sel RECORD SAVE LOAD;
#X obj 69 277 bng 15 250 50 0 empty empty empty 17 7 0 10 -262144 -1
-1;
#X obj 108 277 bng 15 250 50 0 empty empty empty 17 7 0 10 -262144
-1 -1;
#X obj 147 277 bng 15 250 50 0 empty empty empty 17 7 0 10 -262144
-1 -1;
#X obj 33 403 f 1;
#X obj 148 315 t b b;
#X obj 238 165 t a a;
#X connect 0 0 1 0;
#X connect 0 1 2 0;
#X connect 1 0 5 0;
#X connect 2 0 5 1;
#X connect 5 0 6 0;
#X connect 6 0 7 0;
#X connect 6 0 21 0;
#X connect 6 1 8 0;
#X connect 6 1 21 0;
#X connect 7 0 9 0;
#X connect 8 0 10 0;
#X connect 11 0 12 0;
#X connect 11 0 19 1;
#X connect 12 0 3 0;
#X connect 12 1 4 0;
#X connect 13 0 11 0;
#X connect 15 0 16 0;
#X connect 15 1 17 0;
#X connect 15 2 18 0;
#X connect 16 0 19 0;
#X connect 17 0 20 0;
#X connect 18 0 20 0;
#X connect 19 0 13 0;
#X connect 20 0 4 0;
#X connect 20 1 3 0;
#X connect 21 0 15 0;
#X connect 21 1 14 0;
#X restore 2 464 pd phrases-keystroke-parser;
#N canvas 308 243 669 296 phrases-filename-organizer 0;
#X obj -96 10 r phrases-load-filename-in;
#X obj -96 137 s phrases-editor-commands;
#X obj 89 56 s phrases-save-filename;
#X obj -69 89 s phrases-load-filename;
#X obj 89 10 r phrases-save-filename-in;
#X obj -69 66 list;
#X obj 89 33 list;
#X obj 290 10 r phrases-save-path-in;
#X obj 290 33 list;
#X obj 290 56 s phrases-save-path;
#X obj -96 43 t b a;
#X msg -96 113 list LOAD;
#X connect 0 0 10 0;
#X connect 4 0 6 0;
#X connect 5 0 3 0;
#X connect 6 0 2 0;
#X connect 7 0 8 0;
#X connect 8 0 9 0;
#X connect 10 0 11 0;
#X connect 10 1 5 0;
#X connect 11 0 1 0;
#X restore 2 426 pd phrases-filename-organizer;
#N canvas 489 13 582 415 phrases-osc 0;
#X msg 24 54 port \$1;
#X obj 24 76 udpreceive 8000;
#X obj 24 98 unpackOSC;
#X obj 24 120 pipelist;
#X obj 24 142 routeOSC /phrases;
#X obj 24 213 s phrases-key;
#X obj 302 313 udpsend;
#X msg 312 286 connect 127.0.0.1 \$1;
#X obj 302 238 packOSC;
#X obj 312 264 r phrases-osc-out-port;
#X obj 24 32 r phrases-osc-in-port;
#X obj 115 213 print Key-In;
#X obj 302 31 r phrases-osc-out;
#X msg 302 135 send /phrases/led \$1 \$2 \$3;
#X obj 360 55 r phrases-osc-serial-type;
#X obj 347 85 == 0;
#X obj 302 109 spigot 0;
#X obj 315 184 spigot 0;
#X obj 360 160 == 1;
#X msg 315 208 send /phrases/grid/led/set \$1 \$2 \$3;
#X obj 24 178 routeOSC /press /grid/key /adc;
#X obj 142 248 s phrases-adc;
#X connect 0 0 1 0;
#X connect 1 0 2 0;
#X connect 2 0 3 0;
#X connect 3 0 4 0;
#X connect 4 0 20 0;
#X connect 7 0 6 0;
#X connect 8 0 6 0;
#X connect 9 0 7 0;
#X connect 10 0 0 0;
#X connect 12 0 17 0;
#X connect 12 0 16 0;
#X connect 13 0 8 0;
#X connect 14 0 15 0;
#X connect 14 0 18 0;
#X connect 15 0 16 1;
#X connect 16 0 13 0;
#X connect 17 0 19 0;
#X connect 18 0 17 1;
#X connect 19 0 8 0;
#X connect 20 0 5 0;
#X connect 20 0 11 0;
#X connect 20 1 5 0;
#X connect 20 1 11 0;
#X connect 20 2 21 0;
#X restore 2 274 pd phrases-osc;
#N canvas 251 1 743 643 phrases-grid-gui 1;
#X restore 2 388 pd phrases-grid-gui;
#X obj 2 236 import mrpeach;
#N canvas 75 11 937 537 phrases-midi 0;
#X obj 50 23 notein;
#X obj 43 263 s phrases-midi-in;
#X obj 274 23 ctlin;
#X obj 395 23 pgmin;
#X obj 665 23 bendin;
#X obj 530 23 touchin;
#X obj 130 23 polytouchin;
#X obj 73 129 - 1;
#X obj 58 159 +;
#X obj 58 76 sel 0;
#X msg 58 101 128;
#X msg 87 101 144;
#X obj 66 51 t f f;
#X obj 43 183 f;
#X obj 17 159 t b f;
#X obj 43 213 pack 128 0 0;
#X obj 264 104 pack 176 0 0;
#X obj 51 238 print MIDI note-in;
#X obj 264 77 f;
#X obj 254 50 t b f;
#X obj 264 154 s phrases-midi-in;
#X obj 272 129 print MIDI ctrl-in;
#X obj 130 102 pack 160 0 0;
#X obj 130 152 s phrases-midi-in;
#X obj 120 50 t b f;
#X obj 130 77 f;
#X obj 138 127 print MIDI poly-in;
#X obj 395 152 s phrases-midi-in;
#X obj 395 102 pack 192 0 0;
#X obj 395 77 f;
#X obj 385 50 t b f;
#X obj 403 127 print MIDI prog-in;
#X obj 530 97 pack 208 0 0;
#X obj 193 50 + 159;
#X obj 301 50 + 175;
#X obj 422 50 + 191;
#X obj 569 48 + 207;
#X obj 698 50 + 223;
#X obj 530 73 f;
#X obj 530 48 t b f;
#X obj 530 147 s phrases-midi-in;
#X obj 538 122 print MIDI mono-in;
#X obj 655 50 t b f;
#X obj 665 77 f;
#X obj 665 101 pack 224 0 0;
#X obj 665 151 s phrases-midi-in;
#X obj 673 126 print MIDI bend-in;
#X obj 158 501 noteout;
#X obj 245 501 polytouchout;
#X obj 342 501 ctlout;
#X obj 433 501 pgmout;
#X obj 504 501 touchout;
#X obj 577 501 bendout;
#X obj 275 188 r phrases-midi-out;
#X floatatom 37 477 5 0 0 0 - - -;
#X floatatom 75 477 5 0 0 0 - - -;
#X floatatom 113 477 5 0 0 0 - - -;
#X obj 450 239 moses 160;
#X obj 362 215 moses 144;
#X obj 518 263 moses 176;
#X obj 586 287 moses 192;
#X obj 654 311 moses 208;
#X obj 722 334 moses 224;
#X obj 275 215 unpack f f f;
#X obj 342 476 pack 0 0 1;
#X obj 245 476 pack 0 0 1;
#X obj 158 476 pack 0 0 1;
#X obj 433 476 pack 0 1;
#X obj 504 476 pack 0 1;
#X obj 577 476 pack 0 1;
#X obj 433 451 f;
#X obj 504 451 f;
#X obj 577 451 f;
#X obj 342 451 f;
#X obj 245 451 f;
#X obj 158 451 f;
#X obj 409 265 - 127;
#X obj 450 264 t b f;
#X obj 477 289 - 143;
#X obj 518 288 t b f;
#X obj 545 313 - 159;
#X obj 586 312 t b f;
#X obj 613 337 - 175;
#X obj 186 451 f;
#X obj 215 451 f;
#X obj 273 451 f;
#X obj 302 451 f;
#X obj 370 451 f;
#X obj 399 451 f;
#X obj 478 451 f;
#X obj 549 451 f;
#X obj 622 451 f;
#X obj 654 336 t b f;
#X obj 681 361 - 191;
#X obj 722 359 t b f;
#X obj 794 382 t b f;
#X obj 749 384 - 207;
#X obj 821 407 - 223;
#X floatatom 72 343 5 0 0 0 - - -;
#X floatatom 107 343 5 0 0 0 - - -;
#X floatatom 146 342 5 0 0 0 - - -;
#X obj 77 369 bng 15 250 50 0 empty empty empty 17 7 0 10 -262144 -1
-1;
#X msg 381 265 0;
#X obj 362 240 t b b f;
#X connect 0 0 14 0;
#X connect 0 1 12 0;
#X connect 0 2 7 0;
#X connect 2 0 19 0;
#X connect 2 1 16 1;
#X connect 2 2 34 0;
#X connect 3 0 30 0;
#X connect 3 1 35 0;
#X connect 4 0 42 0;
#X connect 4 1 37 0;
#X connect 5 0 39 0;
#X connect 5 1 36 0;
#X connect 6 0 24 0;
#X connect 6 1 22 1;
#X connect 6 2 33 0;
#X connect 7 0 8 1;
#X connect 8 0 13 1;
#X connect 9 0 10 0;
#X connect 9 1 11 0;
#X connect 10 0 8 0;
#X connect 11 0 8 0;
#X connect 12 0 9 0;
#X connect 12 1 15 2;
#X connect 13 0 15 0;
#X connect 14 0 13 0;
#X connect 14 1 15 1;
#X connect 15 0 1 0;
#X connect 15 0 17 0;
#X connect 16 0 20 0;
#X connect 16 0 21 0;
#X connect 18 0 16 0;
#X connect 19 0 18 0;
#X connect 19 1 16 2;
#X connect 22 0 23 0;
#X connect 22 0 26 0;
#X connect 24 0 25 0;
#X connect 24 1 22 2;
#X connect 25 0 22 0;
#X connect 28 0 27 0;
#X connect 28 0 31 0;
#X connect 29 0 28 0;
#X connect 30 0 29 0;
#X connect 30 1 28 1;
#X connect 32 0 40 0;
#X connect 32 0 41 0;
#X connect 33 0 25 1;
#X connect 34 0 18 1;
#X connect 35 0 29 1;
#X connect 36 0 38 1;
#X connect 37 0 43 1;
#X connect 38 0 32 0;
#X connect 39 0 38 0;
#X connect 39 1 32 1;
#X connect 42 0 43 0;
#X connect 42 1 44 1;
#X connect 43 0 44 0;
#X connect 44 0 45 0;
#X connect 44 0 46 0;
#X connect 53 0 63 0;
#X connect 57 0 77 0;
#X connect 57 1 59 0;
#X connect 58 0 103 0;
#X connect 58 1 57 0;
#X connect 59 0 79 0;
#X connect 59 1 60 0;
#X connect 60 0 81 0;
#X connect 60 1 61 0;
#X connect 61 0 92 0;
#X connect 61 1 62 0;
#X connect 62 0 94 0;
#X connect 62 1 95 0;
#X connect 63 0 58 0;
#X connect 63 0 98 0;
#X connect 63 1 75 1;
#X connect 63 1 74 1;
#X connect 63 1 73 1;
#X connect 63 1 70 1;
#X connect 63 1 71 1;
#X connect 63 1 72 1;
#X connect 63 1 99 0;
#X connect 63 2 83 0;
#X connect 63 2 85 0;
#X connect 63 2 87 0;
#X connect 63 2 100 0;
#X connect 64 0 49 0;
#X connect 65 0 48 0;
#X connect 66 0 47 0;
#X connect 67 0 50 0;
#X connect 68 0 51 0;
#X connect 69 0 52 0;
#X connect 70 0 67 0;
#X connect 71 0 68 0;
#X connect 72 0 69 0;
#X connect 73 0 64 0;
#X connect 74 0 65 0;
#X connect 75 0 66 0;
#X connect 75 0 54 0;
#X connect 76 0 84 0;
#X connect 77 0 75 0;
#X connect 77 1 78 0;
#X connect 78 0 84 0;
#X connect 79 0 74 0;
#X connect 79 1 80 0;
#X connect 80 0 86 0;
#X connect 81 0 73 0;
#X connect 81 1 82 0;
#X connect 82 0 88 0;
#X connect 83 0 66 1;
#X connect 83 0 55 0;
#X connect 84 0 66 2;
#X connect 84 0 56 0;
#X connect 85 0 65 1;
#X connect 86 0 65 2;
#X connect 87 0 64 1;
#X connect 88 0 64 2;
#X connect 89 0 67 1;
#X connect 90 0 68 1;
#X connect 91 0 69 1;
#X connect 92 0 70 0;
#X connect 92 1 93 0;
#X connect 93 0 89 0;
#X connect 94 0 71 0;
#X connect 94 1 96 0;
#X connect 95 0 72 0;
#X connect 95 1 97 0;
#X connect 96 0 90 0;
#X connect 97 0 91 0;
#X connect 98 0 101 0;
#X connect 102 0 83 0;
#X connect 103 0 75 0;
#X connect 103 1 102 0;
#X connect 103 2 76 0;
#X restore 2 255 pd phrases-midi;
#N canvas 610 12 633 554 phrases-lua-wrapper 0;
#X obj 8 517 s phrases-midi-out;
#X obj 97 28 r phrases-midi-in;
#X obj 126 47 r phrases-key;
#X obj 8 397 t l l;
#X obj 35 420 unpack f f f;
#X obj 35 469 - 16;
#X obj 35 493 pack f f f;
#X obj 299 161 r phrases-bpm;
#X obj 327 180 r phrases-tpb;
#X obj 356 199 r phrases-gate;
#X obj 270 142 r phrases-save-filename;
#X obj 241 123 r phrases-load-filename;
#X obj 35 445 pipe f f f 100;
#X obj 69 319 phrases-editor-and-sequencer - - - - - - - - - - - -
- - -;
#X obj 99 392 s phrases-midi-out;
#X obj 46 240 bng 15 250 50 0 empty empty empty 17 7 0 10 -262144 -1
-1;
#X obj 184 85 r phrases-tempobang;
#X obj 46 144 bng 15 250 50 0 empty empty empty 17 7 0 10 -262144 -1
-1;
#X obj 46 96 bng 15 250 50 0 empty empty empty 17 7 0 10 -262144 -1
-1;
#X obj 69 9 r phrases-commands;
#X obj 216 361 s phrases-osc-out;
#X obj 327 379 unpack f f f;
#X obj 384 463 != 1;
#X obj 327 519 s phrases-osc-out;
#X obj 408 379 r phrases-tick-length;
#X obj 408 404 / 2;
#X obj 327 490 pack f f f;
#X obj 234 440 pipe f f f 100;
#X obj 212 104 r phrases-gatebang;
#X obj 46 287 bng 15 250 50 0 empty empty empty 17 7 0 10 -262144 -1
-1;
#X obj 414 351 s phrases-color-sender;
#X obj 414 238 r phrases-gui-color-list;
#X obj 155 66 r phrases-adc;
#X obj 46 192 bng 15 250 50 0 empty empty empty 17 7 0 10 -262144 -1
-1;
#X obj 385 218 r phrases-prefs-in;
#X connect 1 0 18 0;
#X connect 1 0 13 1;
#X connect 2 0 17 0;
#X connect 2 0 13 2;
#X connect 3 0 0 0;
#X connect 3 1 4 0;
#X connect 4 0 12 0;
#X connect 4 1 12 1;
#X connect 4 2 12 2;
#X connect 5 0 6 0;
#X connect 6 0 0 0;
#X connect 7 0 13 8;
#X connect 8 0 13 9;
#X connect 9 0 13 10;
#X connect 10 0 13 7;
#X connect 11 0 13 6;
#X connect 12 0 5 0;
#X connect 12 1 6 1;
#X connect 12 2 6 2;
#X connect 13 0 3 0;
#X connect 13 1 14 0;
#X connect 13 2 20 0;
#X connect 13 3 21 0;
#X connect 13 4 30 0;
#X connect 16 0 15 0;
#X connect 16 0 13 4;
#X connect 19 0 13 0;
#X connect 21 0 26 0;
#X connect 21 0 27 0;
#X connect 21 1 26 1;
#X connect 21 1 27 1;
#X connect 21 2 22 0;
#X connect 21 2 27 2;
#X connect 22 0 26 2;
#X connect 24 0 25 0;
#X connect 25 0 27 3;
#X connect 26 0 23 0;
#X connect 27 0 26 0;
#X connect 27 1 26 1;
#X connect 27 2 26 2;
#X connect 28 0 29 0;
#X connect 28 0 13 5;
#X connect 31 0 13 12;
#X connect 32 0 33 0;
#X connect 32 0 13 3;
#X connect 34 0 13 11;
#X restore 2 483 pd phrases-lua-wrapper;
#X symbolatom 2 21 50 0 0 0 - - phrases-load-filename-in;
#X symbolatom 2 61 50 0 0 0 - - phrases-save-filename-in;
#X text 0 4 Custom Loadfile;
#X text 0 44 Custom Savefile;
