#N canvas 64 60 514 379 10;
#X obj 54 35 inlet;
#X obj 168 35 inlet;
#X obj 283 35 inlet;
#X obj 54 83 phrases-varycolor;
#X obj 168 83 phrases-varycolor;
#X obj 283 83 phrases-varycolor;
#X obj 54 165 phrases-makecolor;
#X obj 168 165 phrases-makecolor;
#X obj 283 165 phrases-makecolor;
#X obj 54 221 outlet;
#X obj 168 221 outlet;
#X obj 283 221 outlet;
#X text 56 18 Red;
#X text 173 18 Green;
#X text 287 19 Blue;
#X text 55 239 Regular;
#X text 171 239 Light;
#X text 287 239 Dark;
#X connect 0 0 3 0;
#X connect 1 0 4 0;
#X connect 2 0 5 0;
#X connect 3 0 6 0;
#X connect 3 1 7 0;
#X connect 3 2 8 0;
#X connect 4 0 6 1;
#X connect 4 1 7 1;
#X connect 4 2 8 1;
#X connect 5 0 6 2;
#X connect 5 1 7 2;
#X connect 5 2 8 2;
#X connect 6 0 9 0;
#X connect 7 0 10 0;
#X connect 8 0 11 0;
