#N canvas 513 89 322 406 10;
#X obj 22 92 * 256;
#X obj 43 184 * 256;
#X obj 59 241 * -1;
#X obj 59 266 - 1;
#X obj 59 314 outlet;
#X obj 22 17 inlet;
#X obj 68 17 inlet;
#X obj 114 17 inlet;
#X msg 59 290 color \$1;
#X obj 68 56 t b f;
#X obj 43 160 + 0;
#X obj 59 217 + 0;
#X obj 114 56 t b f;
#X connect 0 0 10 0;
#X connect 1 0 11 0;
#X connect 2 0 3 0;
#X connect 3 0 8 0;
#X connect 5 0 0 0;
#X connect 6 0 9 0;
#X connect 7 0 12 0;
#X connect 8 0 4 0;
#X connect 9 0 0 0;
#X connect 9 1 10 1;
#X connect 10 0 1 0;
#X connect 11 0 2 0;
#X connect 12 0 0 0;
#X connect 12 1 11 1;
