#N canvas 57 0 353 554 10;
#X declare -lib mrpeach;
#N canvas 57 33 957 464 phrases-editor-gui 1;
#X restore 12 1049 pd phrases-editor-gui;
#N canvas 467 14 517 542 phrases-gui-sender 0;
#X msg 87 294 vis 1 \, clear;
#X obj 176 15 list trim;
#X obj 176 -8 r phrases-editor-gui-object;
#X obj 11 -8 r phrases-grid-gui-object;
#X obj 11 15 list trim;
#X obj 212 294 phrases-gui-generator;
#X text 10 -26 Receive GUI objects sent by phrases-gui-generator;
#X obj 60 227 t b b;
#X text 90 279 Clear old GUI;
#X obj 242 98 r phrases-grid-pixelsx;
#X obj 253 117 r phrases-grid-pixelsy;
#X obj 283 174 r phrases-editor-cellsx;
#X obj 294 193 r phrases-editor-cellsy;
#X obj 304 212 r phrases-editor-pixelsx;
#X obj 314 231 r phrases-editor-pixelsy;
#X obj 263 136 r phrases-grid-marginx;
#X obj 273 155 r phrases-grid-marginy;
#X obj 324 250 r phrases-editor-marginx;
#X obj 335 269 r phrases-editor-marginy;
#X obj 222 60 r phrases-monome-x;
#X obj 232 79 r phrases-monome-y;
#X obj 60 204 r phrases-gui-bang;
#X obj 11 333 s pd-phrases-grid-gui;
#X obj 176 333 s pd-phrases-editor-gui;
#X obj 12 378 r phrases-gui-color-startup-bang;
#X obj 12 477 s phrases-commands;
#X msg 12 440 list SETUP_GRID_GUI;
#X msg 32 415 list UPDATE_EDITOR_GUI;
#X connect 0 0 22 0;
#X connect 0 0 23 0;
#X connect 1 0 23 0;
#X connect 2 0 1 0;
#X connect 3 0 4 0;
#X connect 4 0 22 0;
#X connect 7 0 5 0;
#X connect 7 1 0 0;
#X connect 9 0 5 3;
#X connect 10 0 5 4;
#X connect 11 0 5 7;
#X connect 12 0 5 8;
#X connect 13 0 5 9;
#X connect 14 0 5 10;
#X connect 15 0 5 5;
#X connect 16 0 5 6;
#X connect 17 0 5 11;
#X connect 18 0 5 12;
#X connect 19 0 5 1;
#X connect 20 0 5 2;
#X connect 21 0 7 0;
#X connect 24 0 27 0;
#X connect 24 0 26 0;
#X connect 26 0 25 0;
#X connect 27 0 25 0;
#X restore 12 1030 pd phrases-gui-sender;
#N canvas 71 41 621 374 phrases-prefs 0;
#X msg 196 55 8;
#X msg 224 55 8;
#X text 199 38 X --- Y;
#X obj 272 40 bng 15 250 50 0 empty empty empty 17 7 0 10 -262144 -1
-1;
#X obj 272 110 bng 15 250 50 0 empty empty empty 17 7 0 10 -262144
-1 -1;
#X obj 272 12 r phrases-prefs-bang;
#X text 128 108 BPM --- TPB --- GATE;
#X msg 126 125 120;
#X msg 226 125 16;
#X msg 176 125 4;
#X floatatom 196 79 3 0 0 0 - - phrases-monome-x;
#X floatatom 224 79 3 0 0 0 - - phrases-monome-y;
#X floatatom 126 149 3 0 0 0 - - phrases-bpm;
#X floatatom 176 149 3 0 0 0 - - phrases-tpb;
#X floatatom 226 149 3 0 0 0 - - phrases-gate;
#X obj 272 184 bng 15 250 50 0 empty empty empty 17 7 0 10 -262144
-1 -1;
#X text 122 53 Monome size;
#X text -1 122 Default tempo/gating;
#X text 1 182 Savefile directory;
#X obj 1 223 s phrases-save-path-in;
#X msg 1 199 C:/Users/Christian/My Documents/pd/test/;
#X floatatom 305 79 6 0 0 0 - - phrases-osc-in-port;
#X floatatom 353 79 6 0 0 0 - - phrases-osc-out-port;
#X msg 305 55 8000;
#X msg 353 55 8080;
#X floatatom 305 149 2 0 0 0 - - phrases-osc-serial-type;
#X text 394 54 OpenSoundControl ports;
#X text 302 38 LISTEN - SEND;
#X msg 305 125 0;
#X text 337 125 Monome communications type \; 1 = serialosc \; 0 =
monomeserial;
#X connect 0 0 10 0;
#X connect 1 0 11 0;
#X connect 3 0 1 0;
#X connect 3 0 0 0;
#X connect 3 0 4 0;
#X connect 3 0 23 0;
#X connect 3 0 24 0;
#X connect 4 0 7 0;
#X connect 4 0 9 0;
#X connect 4 0 8 0;
#X connect 4 0 15 0;
#X connect 4 0 28 0;
#X connect 5 0 3 0;
#X connect 7 0 12 0;
#X connect 8 0 14 0;
#X connect 9 0 13 0;
#X connect 15 0 20 0;
#X connect 20 0 19 0;
#X connect 23 0 21 0;
#X connect 24 0 22 0;
#X connect 28 0 25 0;
#X restore 12 973 pd phrases-prefs;
#N canvas 65 2 842 395 phrases-gui-prefs 0;
#X obj 235 12 r phrases-gui-prefs-bang;
#X text 159 35 X --- Y;
#X text 161 95 X --- Y;
#X text 162 155 X --- Y;
#X text 163 215 X --- Y;
#X text 163 275 X --- Y;
#X text 63 51 grid GUI size;
#X text 45 111 grid GUI margins;
#X text 51 231 editor GUI size;
#X text 45 171 editor GUI cells;
#X text 33 291 editor GUI margins;
#X obj 235 97 bng 15 250 50 0 empty empty empty 17 7 0 10 -262144 -1
-1;
#X obj 235 157 bng 15 250 50 0 empty empty empty 17 7 0 10 -262144
-1 -1;
#X obj 235 217 bng 15 250 50 0 empty empty empty 17 7 0 10 -262144
-1 -1;
#X obj 235 277 bng 15 250 50 0 empty empty empty 17 7 0 10 -262144
-1 -1;
#X obj 235 37 bng 15 250 50 0 empty empty empty 17 7 0 10 -262144 -1
-1;
#X text 271 36 R -- G -- B;
#X text 373 36 R -- G -- B;
#X text 271 96 R -- G -- B;
#X text 373 96 R -- G -- B;
#X text 475 96 R -- G -- B;
#X text 475 36 R -- G -- B;
#X text 577 96 R -- G -- B;
#X msg 572 112 255;
#X msg 600 112 255;
#X msg 628 112 255;
#X msg 294 52 1;
#X msg 396 52 1;
#X msg 368 112 60;
#X msg 396 112 50;
#X msg 194 292 1;
#X floatatom 154 74 5 0 0 0 - - phrases-grid-pixelsx;
#X floatatom 188 74 5 0 0 0 - - phrases-grid-pixelsy;
#X floatatom 154 134 4 0 0 0 - - phrases-grid-marginx;
#X floatatom 192 134 4 0 0 0 - - phrases-grid-marginy;
#X floatatom 154 194 4 0 0 0 - - phrases-editor-cellsx;
#X floatatom 192 194 4 0 0 0 - - phrases-editor-cellsy;
#X floatatom 154 254 5 0 0 0 - - phrases-editor-pixelsx;
#X floatatom 195 254 5 0 0 0 - - phrases-editor-pixelsy;
#X floatatom 154 314 4 0 0 0 - - phrases-editor-marginx;
#X floatatom 194 314 4 0 0 0 - - phrases-editor-marginy;
#X floatatom 266 74 4 0 0 0 - - phrases-grid-red1;
#X floatatom 294 74 4 0 0 0 - - phrases-grid-green1;
#X floatatom 322 74 4 0 0 0 - - phrases-grid-blue1;
#X floatatom 368 74 4 0 0 0 - - phrases-grid-red2;
#X floatatom 396 74 4 0 0 0 - - phrases-grid-green2;
#X floatatom 424 74 4 0 0 0 - - phrases-grid-blue2;
#X floatatom 470 74 4 0 0 0 - - phrases-grid-red3;
#X floatatom 498 74 4 0 0 0 - - phrases-grid-green3;
#X floatatom 526 74 4 0 0 0 - - phrases-grid-blue3;
#X floatatom 266 134 4 0 0 0 - - phrases-editor-red1;
#X floatatom 294 134 4 0 0 0 - - phrases-editor-green1;
#X floatatom 322 134 4 0 0 0 - - phrases-editor-blue1;
#X floatatom 368 134 4 0 0 0 - - phrases-editor-red2;
#X floatatom 396 134 4 0 0 0 - - phrases-editor-green2;
#X floatatom 424 134 4 0 0 0 - - phrases-editor-blue2;
#X floatatom 470 134 4 0 0 0 - - phrases-editor-red3;
#X floatatom 498 134 4 0 0 0 - - phrases-editor-green3;
#X floatatom 526 134 4 0 0 0 - - phrases-editor-blue3;
#X floatatom 572 134 4 0 0 0 - - phrases-editor-red4;
#X floatatom 600 134 4 0 0 0 - - phrases-editor-green4;
#X floatatom 628 134 4 0 0 0 - - phrases-editor-blue4;
#X text 660 56 grid button colors \; 1-255;
#X text 660 116 editor colors \; 1-255;
#X msg 154 292 3;
#X msg 154 112 2;
#X msg 192 112 2;
#X msg 154 52 400;
#X msg 188 52 400;
#X text 577 36 R -- G -- B;
#X floatatom 572 74 4 0 0 0 - - phrases-grid-red4;
#X floatatom 600 74 4 0 0 0 - - phrases-grid-green4;
#X floatatom 628 74 4 0 0 0 - - phrases-grid-blue4;
#X msg 154 172 4;
#X msg 192 172 36;
#X msg 195 232 440;
#X msg 470 112 15;
#X msg 498 112 15;
#X msg 526 112 15;
#X msg 322 112 60;
#X msg 294 112 40;
#X msg 266 112 175;
#X msg 424 112 200;
#X msg 154 232 560;
#X msg 266 52 250;
#X msg 322 52 1;
#X msg 368 52 1;
#X msg 498 52 200;
#X msg 470 52 100;
#X msg 526 52 100;
#X msg 572 52 125;
#X msg 600 52 125;
#X msg 628 52 125;
#X msg 424 52 180;
#X connect 0 0 15 0;
#X connect 11 0 65 0;
#X connect 11 0 66 0;
#X connect 11 0 12 0;
#X connect 11 0 81 0;
#X connect 11 0 80 0;
#X connect 11 0 79 0;
#X connect 11 0 28 0;
#X connect 11 0 29 0;
#X connect 11 0 82 0;
#X connect 11 0 76 0;
#X connect 11 0 77 0;
#X connect 11 0 78 0;
#X connect 11 0 23 0;
#X connect 11 0 24 0;
#X connect 11 0 25 0;
#X connect 12 0 73 0;
#X connect 12 0 74 0;
#X connect 12 0 13 0;
#X connect 13 0 83 0;
#X connect 13 0 75 0;
#X connect 13 0 14 0;
#X connect 14 0 64 0;
#X connect 14 0 30 0;
#X connect 15 0 68 0;
#X connect 15 0 67 0;
#X connect 15 0 84 0;
#X connect 15 0 26 0;
#X connect 15 0 85 0;
#X connect 15 0 86 0;
#X connect 15 0 27 0;
#X connect 15 0 93 0;
#X connect 15 0 88 0;
#X connect 15 0 87 0;
#X connect 15 0 89 0;
#X connect 15 0 11 0;
#X connect 15 0 90 0;
#X connect 15 0 91 0;
#X connect 15 0 92 0;
#X connect 23 0 59 0;
#X connect 24 0 60 0;
#X connect 25 0 61 0;
#X connect 26 0 42 0;
#X connect 27 0 45 0;
#X connect 28 0 53 0;
#X connect 29 0 54 0;
#X connect 30 0 40 0;
#X connect 64 0 39 0;
#X connect 65 0 33 0;
#X connect 66 0 34 0;
#X connect 67 0 31 0;
#X connect 68 0 32 0;
#X connect 73 0 35 0;
#X connect 74 0 36 0;
#X connect 75 0 38 0;
#X connect 76 0 56 0;
#X connect 77 0 57 0;
#X connect 78 0 58 0;
#X connect 79 0 52 0;
#X connect 80 0 51 0;
#X connect 81 0 50 0;
#X connect 82 0 55 0;
#X connect 83 0 37 0;
#X connect 84 0 41 0;
#X connect 85 0 43 0;
#X connect 86 0 44 0;
#X connect 87 0 48 0;
#X connect 88 0 47 0;
#X connect 89 0 49 0;
#X connect 90 0 70 0;
#X connect 91 0 71 0;
#X connect 92 0 72 0;
#X connect 93 0 46 0;
#X restore 12 992 pd phrases-gui-prefs;
#N canvas 366 112 406 362 phrases-bang-order 0;
#X obj 64 24 loadbang;
#X obj 124 137 s phrases-prefs-bang;
#X obj 109 158 s phrases-gui-prefs-bang;
#X obj 94 179 s phrases-gui-bang;
#X obj 139 116 s phrases-metro-stop-bang;
#X obj 64 221 s phrases-metro-start-bang;
#X msg 22 24 bang;
#X obj 64 83 t b b b b b b;
#X obj 79 200 s phrases-gui-color-startup-bang;
#X connect 0 0 7 0;
#X connect 6 0 7 0;
#X connect 7 0 5 0;
#X connect 7 1 8 0;
#X connect 7 2 3 0;
#X connect 7 3 2 0;
#X connect 7 4 1 0;
#X connect 7 5 4 0;
#X restore 12 1011 pd phrases-bang-order;
#N canvas 58 0 518 531 phrases-tempo-generator 0;
#X obj 56 254 metro;
#X obj 83 136 /;
#X obj 142 109 *;
#X obj 56 278 bng 15 50 10 0 empty empty empty 0 -6 0 8 -258113 -228856
-1;
#X msg 83 109 60000;
#X floatatom 83 166 7 0 0 1 - - -;
#X obj 110 406 bng 15 200 50 0 empty empty empty 17 7 0 10 -4160 -257985
-257985;
#X obj 96 302 + 1;
#X obj 83 352 moses;
#X obj 110 379 t b b;
#X text 129 165 ms between tempo ticks;
#X floatatom 56 379 5 0 0 0 - - -;
#X obj 56 352 mod;
#X obj 83 77 t b f;
#X obj 123 77 t b b f;
#X obj 56 302 i 1;
#X obj 56 325 t f f;
#X obj 56 404 t b f;
#X text 55 487 Send tempo ticks only after updating ticknum;
#X obj 110 430 s phrases-gatebang;
#X obj 56 472 s phrases-tempobang;
#X obj 83 451 s phrases-ticknum;
#X obj 83 25 r phrases-bpm;
#X obj 123 53 r phrases-tpb;
#X obj 110 325 r phrases-gate;
#X obj 16 199 bng 15 250 50 0 empty phrases-metro-start-bang empty
17 7 0 10 -262144 -1 -1;
#X obj 106 199 bng 15 250 50 0 empty phrases-metro-stop-bang empty
17 7 0 10 -262144 -1 -1;
#X msg 56 227 stop;
#X text 32 197 r start;
#X text 122 197 r stop;
#X text 218 269 1-indexing is necessary here;
#X text 29 3 Generate properly spaced tempo ticks;
#X text 159 355 Launch bangs on gate ticks. / \; NOTE: Gatebangs are
sent before ticknum and tempobang \, / \; in order to allow timely
updates of activity on / \; tick 0 \, and transference whenever.;
#X msg 192 270 1;
#X msg 106 270 0;
#X obj 180 196 s phrases-tick-length;
#X connect 0 0 3 0;
#X connect 1 0 5 0;
#X connect 2 0 1 1;
#X connect 3 0 15 0;
#X connect 4 0 1 0;
#X connect 5 0 0 1;
#X connect 5 0 35 0;
#X connect 6 0 19 0;
#X connect 7 0 15 1;
#X connect 8 1 9 0;
#X connect 9 0 6 0;
#X connect 9 1 33 0;
#X connect 11 0 17 0;
#X connect 12 0 11 0;
#X connect 13 0 4 0;
#X connect 13 1 2 0;
#X connect 14 0 4 0;
#X connect 14 1 2 0;
#X connect 14 2 2 1;
#X connect 15 0 7 0;
#X connect 15 0 16 0;
#X connect 16 0 12 0;
#X connect 16 1 8 0;
#X connect 17 0 20 0;
#X connect 17 1 21 0;
#X connect 22 0 13 0;
#X connect 23 0 14 0;
#X connect 24 0 8 1;
#X connect 24 0 12 1;
#X connect 25 0 0 0;
#X connect 26 0 27 0;
#X connect 26 0 34 0;
#X connect 27 0 0 0;
#X connect 33 0 15 1;
#X connect 34 0 15 1;
#X restore 12 1125 pd phrases-tempo-generator;
#N canvas 56 0 929 542 phrases-button-colorizer 0;
#X obj 319 13 r phrases-grid-red1;
#X obj 347 32 r phrases-grid-green1;
#X obj 376 51 r phrases-grid-blue1;
#X obj 319 159 s phrases-grid-color1;
#X obj 509 13 r phrases-grid-red2;
#X obj 537 32 r phrases-grid-green2;
#X obj 566 51 r phrases-grid-blue2;
#X obj 509 159 s phrases-grid-color2;
#X obj 699 13 r phrases-grid-red3;
#X obj 727 32 r phrases-grid-green3;
#X obj 756 51 r phrases-grid-blue3;
#X obj 509 183 r phrases-editor-red1;
#X obj 537 202 r phrases-editor-green1;
#X obj 566 221 r phrases-editor-blue1;
#X obj 699 159 s phrases-grid-color3;
#X obj 509 330 s phrases-editor-color1;
#X obj 709 183 r phrases-editor-red2;
#X obj 737 202 r phrases-editor-green2;
#X obj 766 221 r phrases-editor-blue2;
#X obj 709 330 s phrases-editor-color2;
#X obj 319 353 r phrases-editor-red3;
#X obj 347 372 r phrases-editor-green3;
#X obj 376 391 r phrases-editor-blue3;
#X obj 319 500 s phrases-editor-color3;
#X obj 519 353 r phrases-editor-red4;
#X obj 547 372 r phrases-editor-green4;
#X obj 576 391 r phrases-editor-blue4;
#X obj 519 500 s phrases-editor-color4;
#X obj 319 183 r phrases-grid-red4;
#X obj 347 202 r phrases-grid-green4;
#X obj 376 221 r phrases-grid-blue4;
#X obj 319 330 s phrases-grid-color4;
#X obj 48 28 r phrases-color-sender;
#X obj 177 90 phrases-makecolor;
#X obj 48 55 unpack s f f f f f f;
#X obj 84 140 f;
#X obj 67 90 phrases-makecolor;
#X obj 129 140 f;
#X obj 40 227 s;
#X msg 84 189 color \$1 \$2;
#X obj 84 164 pack 0 0;
#X obj 319 136 pack 0 0 0;
#X obj 385 77 t b f;
#X obj 319 112 f 0;
#X obj 347 77 t b f;
#X obj 509 136 pack 0 0 0;
#X obj 575 77 t b f;
#X obj 509 112 f 0;
#X obj 537 77 t b f;
#X obj 699 136 pack 0 0 0;
#X obj 765 77 t b f;
#X obj 699 112 f 0;
#X obj 727 77 t b f;
#X obj 709 306 pack 0 0 0;
#X obj 775 247 t b f;
#X obj 709 282 f 0;
#X obj 737 247 t b f;
#X obj 509 306 pack 0 0 0;
#X obj 575 247 t b f;
#X obj 509 282 f 0;
#X obj 537 247 t b f;
#X obj 319 306 pack 0 0 0;
#X obj 385 247 t b f;
#X obj 319 282 f 0;
#X obj 347 247 t b f;
#X obj 319 476 pack 0 0 0;
#X obj 385 417 t b f;
#X obj 319 452 f 0;
#X obj 347 417 t b f;
#X obj 519 476 pack 0 0 0;
#X obj 585 417 t b f;
#X obj 519 452 f 0;
#X obj 547 417 t b f;
#X obj 16 90 t b b s;
#X connect 0 0 43 1;
#X connect 0 0 43 0;
#X connect 1 0 44 0;
#X connect 2 0 42 0;
#X connect 4 0 47 1;
#X connect 4 0 47 0;
#X connect 5 0 48 0;
#X connect 6 0 46 0;
#X connect 8 0 51 1;
#X connect 8 0 51 0;
#X connect 9 0 52 0;
#X connect 10 0 50 0;
#X connect 11 0 59 1;
#X connect 11 0 59 0;
#X connect 12 0 60 0;
#X connect 13 0 58 0;
#X connect 16 0 55 1;
#X connect 16 0 55 0;
#X connect 17 0 56 0;
#X connect 18 0 54 0;
#X connect 20 0 67 1;
#X connect 20 0 67 0;
#X connect 21 0 68 0;
#X connect 22 0 66 0;
#X connect 24 0 71 1;
#X connect 24 0 71 0;
#X connect 25 0 72 0;
#X connect 26 0 70 0;
#X connect 28 0 63 1;
#X connect 28 0 63 0;
#X connect 29 0 64 0;
#X connect 30 0 62 0;
#X connect 32 0 34 0;
#X connect 33 0 37 1;
#X connect 34 0 73 0;
#X connect 34 1 36 0;
#X connect 34 2 36 1;
#X connect 34 3 36 2;
#X connect 34 4 33 0;
#X connect 34 5 33 1;
#X connect 34 6 33 2;
#X connect 35 0 40 0;
#X connect 36 0 35 1;
#X connect 37 0 40 1;
#X connect 39 0 38 0;
#X connect 40 0 39 0;
#X connect 41 0 3 0;
#X connect 42 0 43 0;
#X connect 42 1 41 2;
#X connect 43 0 41 0;
#X connect 44 0 43 0;
#X connect 44 1 41 1;
#X connect 45 0 7 0;
#X connect 46 0 47 0;
#X connect 46 1 45 2;
#X connect 47 0 45 0;
#X connect 48 0 47 0;
#X connect 48 1 45 1;
#X connect 49 0 14 0;
#X connect 50 0 51 0;
#X connect 50 1 49 2;
#X connect 51 0 49 0;
#X connect 52 0 51 0;
#X connect 52 1 49 1;
#X connect 53 0 19 0;
#X connect 54 0 55 0;
#X connect 54 1 53 2;
#X connect 55 0 53 0;
#X connect 56 0 55 0;
#X connect 56 1 53 1;
#X connect 57 0 15 0;
#X connect 58 0 59 0;
#X connect 58 1 57 2;
#X connect 59 0 57 0;
#X connect 60 0 59 0;
#X connect 60 1 57 1;
#X connect 61 0 31 0;
#X connect 62 0 63 0;
#X connect 62 1 61 2;
#X connect 63 0 61 0;
#X connect 64 0 63 0;
#X connect 64 1 61 1;
#X connect 65 0 23 0;
#X connect 66 0 67 0;
#X connect 66 1 65 2;
#X connect 67 0 65 0;
#X connect 68 0 67 0;
#X connect 68 1 65 1;
#X connect 69 0 27 0;
#X connect 70 0 71 0;
#X connect 70 1 69 2;
#X connect 71 0 69 0;
#X connect 72 0 71 0;
#X connect 72 1 69 1;
#X connect 73 0 35 0;
#X connect 73 1 37 0;
#X connect 73 2 38 1;
#X restore 12 1087 pd phrases-button-colorizer;
#N canvas 316 0 403 556 phrases-keystroke-parser 0;
#X obj 69 28 keyname;
#X floatatom 69 54 5 0 0 0 - - -;
#X symbolatom 108 54 10 0 0 0 - - -;
#X obj 135 527 s phrases-metro-stop-bang;
#X obj 154 508 s phrases-metro-start-bang;
#X obj 69 79 pack f s;
#X obj 69 114 phrases-keychord;
#X symbolatom 9 167 20 0 0 0 - - -;
#X symbolatom 134 167 10 0 0 0 - - -;
#X obj 9 193 bng 15 250 50 0 empty empty empty 17 7 0 10 -262144 -1
-1;
#X obj 134 193 bng 15 250 50 0 empty empty empty 17 7 0 10 -262144
-1 -1;
#X obj 87 403 % 2;
#X obj 76 438 sel 0 1;
#X obj 60 403 + 1;
#X obj 265 195 s phrases-commands;
#X obj 69 252 sel RECORD SAVE LOAD;
#X obj 69 277 bng 15 250 50 0 empty empty empty 17 7 0 10 -262144 -1
-1;
#X obj 108 277 bng 15 250 50 0 empty empty empty 17 7 0 10 -262144
-1 -1;
#X obj 147 277 bng 15 250 50 0 empty empty empty 17 7 0 10 -262144
-1 -1;
#X obj 33 403 f 1;
#X obj 148 315 t b b;
#X obj 238 165 t a a;
#X connect 0 0 1 0;
#X connect 0 1 2 0;
#X connect 1 0 5 0;
#X connect 2 0 5 1;
#X connect 5 0 6 0;
#X connect 6 0 7 0;
#X connect 6 0 21 0;
#X connect 6 1 8 0;
#X connect 6 1 21 0;
#X connect 7 0 9 0;
#X connect 8 0 10 0;
#X connect 11 0 12 0;
#X connect 11 0 19 1;
#X connect 12 0 3 0;
#X connect 12 1 4 0;
#X connect 13 0 11 0;
#X connect 15 0 16 0;
#X connect 15 1 17 0;
#X connect 15 2 18 0;
#X connect 16 0 19 0;
#X connect 17 0 20 0;
#X connect 18 0 20 0;
#X connect 19 0 13 0;
#X connect 20 0 4 0;
#X connect 20 1 3 0;
#X connect 21 0 15 0;
#X connect 21 1 14 0;
#X restore 12 1144 pd phrases-keystroke-parser;
#X msg 15 81 test.lua;
#X msg 15 101 test.lua;
#X msg 15 161 test.lua;
#X msg 15 121 test2.lua;
#X msg 15 141 test3.lua;
#X msg 15 181 test.lua;
#X msg 15 241 test.lua;
#X msg 15 201 test2.lua;
#X msg 15 221 test3.lua;
#X msg 15 261 test.lua;
#X msg 15 321 test.lua;
#X msg 15 281 test2.lua;
#X msg 15 301 test3.lua;
#X obj -8 353 s phrases-load-filename-in;
#N canvas 308 243 669 296 phrases-filename-organizer 0;
#X obj -96 10 r phrases-load-filename-in;
#X obj -96 137 s phrases-editor-commands;
#X obj 89 56 s phrases-save-filename;
#X obj -69 89 s phrases-load-filename;
#X obj 89 10 r phrases-save-filename-in;
#X obj -69 66 list;
#X obj 89 33 list;
#X obj 290 10 r phrases-save-path-in;
#X obj 290 33 list;
#X obj 290 56 s phrases-save-path;
#X obj -96 43 t b a;
#X msg -96 113 list LOAD;
#X connect 0 0 10 0;
#X connect 4 0 6 0;
#X connect 5 0 3 0;
#X connect 6 0 2 0;
#X connect 7 0 8 0;
#X connect 8 0 9 0;
#X connect 10 0 11 0;
#X connect 10 1 5 0;
#X connect 11 0 1 0;
#X restore 12 1106 pd phrases-filename-organizer;
#X text 90 4 Loadfile hotseats;
#X msg 16 471 test.lua;
#X msg 16 431 test2.lua;
#X msg 16 451 test3.lua;
#X msg 16 491 test.lua;
#X msg 16 551 test.lua;
#X msg 16 511 test2.lua;
#X msg 16 531 test3.lua;
#X msg 16 571 test.lua;
#X msg 16 631 test.lua;
#X msg 16 591 test2.lua;
#X msg 16 611 test3.lua;
#X msg 16 651 test.lua;
#X msg 16 711 test.lua;
#X msg 16 671 test2.lua;
#X msg 16 691 test3.lua;
#X obj -8 733 s phrases-save-filename-in;
#X text -9 393 Savefile hotseats;
#N canvas 64 27 570 377 phrases-osc 0;
#X msg 24 54 port \$1;
#X obj 24 76 udpreceive 8000;
#X obj 24 98 unpackOSC;
#X obj 24 120 pipelist;
#X obj 24 142 routeOSC /phrases;
#X obj 24 178 routeOSC /press /grid/key;
#X obj 24 213 s phrases-key;
#X obj 222 313 udpsend;
#X msg 232 286 connect 127.0.0.1 \$1;
#X obj 222 238 packOSC;
#X obj 232 264 r phrases-osc-out-port;
#X obj 24 32 r phrases-osc-in-port;
#X obj 115 213 print Key-In;
#X obj 222 31 r phrases-osc-out;
#X msg 222 135 send /phrases/led \$1 \$2 \$3;
#X obj 280 55 r phrases-osc-serial-type;
#X obj 267 85 == 0;
#X obj 222 109 spigot 0;
#X obj 235 184 spigot 0;
#X obj 280 160 == 1;
#X msg 235 208 send /phrases/grid/led/set \$1 \$2 \$3;
#X connect 0 0 1 0;
#X connect 1 0 2 0;
#X connect 2 0 3 0;
#X connect 3 0 4 0;
#X connect 4 0 5 0;
#X connect 5 0 6 0;
#X connect 5 0 12 0;
#X connect 5 1 6 0;
#X connect 5 1 12 0;
#X connect 8 0 7 0;
#X connect 9 0 7 0;
#X connect 10 0 8 0;
#X connect 11 0 0 0;
#X connect 13 0 18 0;
#X connect 13 0 17 0;
#X connect 14 0 9 0;
#X connect 15 0 16 0;
#X connect 15 0 19 0;
#X connect 16 0 17 1;
#X connect 17 0 14 0;
#X connect 18 0 20 0;
#X connect 19 0 18 1;
#X connect 20 0 9 0;
#X restore 12 895 pd phrases-osc;
#N canvas 251 1 559 486 phrases-grid-gui 1;
#X restore 12 1068 pd phrases-grid-gui;
#X msg 177 81 test.lua;
#X msg 177 101 test.lua;
#X msg 177 161 test.lua;
#X msg 177 121 test2.lua;
#X msg 177 141 test3.lua;
#X msg 177 181 test.lua;
#X msg 177 241 test.lua;
#X msg 177 201 test2.lua;
#X msg 177 221 test3.lua;
#X msg 177 261 test.lua;
#X msg 177 321 test.lua;
#X msg 177 281 test2.lua;
#X msg 177 301 test3.lua;
#X obj 154 353 s phrases-load-filename-in;
#X msg 177 41 test2.lua;
#X msg 177 61 test3.lua;
#X msg 15 41 test/test2.lua;
#X msg 15 61 test/test3.lua;
#X msg 15 21 test/test.lua;
#X msg 177 21 test.lua;
#X msg 16 411 default-savefile.lua;
#X obj 12 914 import mrpeach;
#N canvas 75 11 937 537 phrases-midi 0;
#X obj 50 23 notein;
#X obj 43 263 s phrases-midi-in;
#X obj 274 23 ctlin;
#X obj 395 23 pgmin;
#X obj 665 23 bendin;
#X obj 530 23 touchin;
#X obj 130 23 polytouchin;
#X obj 73 129 - 1;
#X obj 58 159 +;
#X obj 58 76 sel 0;
#X msg 58 101 128;
#X msg 87 101 144;
#X obj 66 51 t f f;
#X obj 43 183 f;
#X obj 17 159 t b f;
#X obj 43 213 pack 128 0 0;
#X obj 264 104 pack 176 0 0;
#X obj 51 238 print MIDI note-in;
#X obj 264 77 f;
#X obj 254 50 t b f;
#X obj 264 154 s phrases-midi-in;
#X obj 272 129 print MIDI ctrl-in;
#X obj 130 102 pack 160 0 0;
#X obj 130 152 s phrases-midi-in;
#X obj 120 50 t b f;
#X obj 130 77 f;
#X obj 138 127 print MIDI poly-in;
#X obj 395 152 s phrases-midi-in;
#X obj 395 102 pack 192 0 0;
#X obj 395 77 f;
#X obj 385 50 t b f;
#X obj 403 127 print MIDI prog-in;
#X obj 530 97 pack 208 0 0;
#X obj 193 50 + 159;
#X obj 301 50 + 175;
#X obj 422 50 + 191;
#X obj 569 48 + 207;
#X obj 698 50 + 223;
#X obj 530 73 f;
#X obj 530 48 t b f;
#X obj 530 147 s phrases-midi-in;
#X obj 538 122 print MIDI mono-in;
#X obj 655 50 t b f;
#X obj 665 77 f;
#X obj 665 101 pack 224 0 0;
#X obj 665 151 s phrases-midi-in;
#X obj 673 126 print MIDI bend-in;
#X obj 158 501 noteout;
#X obj 245 501 polytouchout;
#X obj 342 501 ctlout;
#X obj 433 501 pgmout;
#X obj 504 501 touchout;
#X obj 577 501 bendout;
#X obj 275 188 r phrases-midi-out;
#X floatatom 37 477 5 0 0 0 - - -;
#X floatatom 75 477 5 0 0 0 - - -;
#X floatatom 113 477 5 0 0 0 - - -;
#X obj 450 239 moses 160;
#X obj 362 215 moses 144;
#X obj 518 263 moses 176;
#X obj 586 287 moses 192;
#X obj 654 311 moses 208;
#X obj 722 334 moses 224;
#X obj 275 215 unpack f f f;
#X obj 342 476 pack 0 0 1;
#X obj 245 476 pack 0 0 1;
#X obj 158 476 pack 0 0 1;
#X obj 433 476 pack 0 1;
#X obj 504 476 pack 0 1;
#X obj 577 476 pack 0 1;
#X obj 433 451 f;
#X obj 504 451 f;
#X obj 577 451 f;
#X obj 342 451 f;
#X obj 245 451 f;
#X obj 158 451 f;
#X obj 409 265 - 127;
#X obj 450 264 t b f;
#X obj 477 289 - 143;
#X obj 518 288 t b f;
#X obj 545 313 - 159;
#X obj 586 312 t b f;
#X obj 613 337 - 175;
#X obj 186 451 f;
#X obj 215 451 f;
#X obj 273 451 f;
#X obj 302 451 f;
#X obj 370 451 f;
#X obj 399 451 f;
#X obj 478 451 f;
#X obj 549 451 f;
#X obj 622 451 f;
#X obj 654 336 t b f;
#X obj 681 361 - 191;
#X obj 722 359 t b f;
#X obj 794 382 t b f;
#X obj 749 384 - 207;
#X obj 821 407 - 223;
#X floatatom 72 343 5 0 0 0 - - -;
#X floatatom 107 343 5 0 0 0 - - -;
#X floatatom 146 342 5 0 0 0 - - -;
#X obj 77 369 bng 15 250 50 0 empty empty empty 17 7 0 10 -262144 -1
-1;
#X msg 381 265 0;
#X obj 362 240 t b b f;
#X connect 0 0 14 0;
#X connect 0 1 12 0;
#X connect 0 2 7 0;
#X connect 2 0 19 0;
#X connect 2 1 16 1;
#X connect 2 2 34 0;
#X connect 3 0 30 0;
#X connect 3 1 35 0;
#X connect 4 0 42 0;
#X connect 4 1 37 0;
#X connect 5 0 39 0;
#X connect 5 1 36 0;
#X connect 6 0 24 0;
#X connect 6 1 22 1;
#X connect 6 2 33 0;
#X connect 7 0 8 1;
#X connect 8 0 13 1;
#X connect 9 0 10 0;
#X connect 9 1 11 0;
#X connect 10 0 8 0;
#X connect 11 0 8 0;
#X connect 12 0 9 0;
#X connect 12 1 15 2;
#X connect 13 0 15 0;
#X connect 14 0 13 0;
#X connect 14 1 15 1;
#X connect 15 0 1 0;
#X connect 15 0 17 0;
#X connect 16 0 20 0;
#X connect 16 0 21 0;
#X connect 18 0 16 0;
#X connect 19 0 18 0;
#X connect 19 1 16 2;
#X connect 22 0 23 0;
#X connect 22 0 26 0;
#X connect 24 0 25 0;
#X connect 24 1 22 2;
#X connect 25 0 22 0;
#X connect 28 0 27 0;
#X connect 28 0 31 0;
#X connect 29 0 28 0;
#X connect 30 0 29 0;
#X connect 30 1 28 1;
#X connect 32 0 40 0;
#X connect 32 0 41 0;
#X connect 33 0 25 1;
#X connect 34 0 18 1;
#X connect 35 0 29 1;
#X connect 36 0 38 1;
#X connect 37 0 43 1;
#X connect 38 0 32 0;
#X connect 39 0 38 0;
#X connect 39 1 32 1;
#X connect 42 0 43 0;
#X connect 42 1 44 1;
#X connect 43 0 44 0;
#X connect 44 0 45 0;
#X connect 44 0 46 0;
#X connect 53 0 63 0;
#X connect 57 0 77 0;
#X connect 57 1 59 0;
#X connect 58 0 103 0;
#X connect 58 1 57 0;
#X connect 59 0 79 0;
#X connect 59 1 60 0;
#X connect 60 0 81 0;
#X connect 60 1 61 0;
#X connect 61 0 92 0;
#X connect 61 1 62 0;
#X connect 62 0 94 0;
#X connect 62 1 95 0;
#X connect 63 0 58 0;
#X connect 63 0 98 0;
#X connect 63 1 75 1;
#X connect 63 1 74 1;
#X connect 63 1 73 1;
#X connect 63 1 70 1;
#X connect 63 1 71 1;
#X connect 63 1 72 1;
#X connect 63 1 99 0;
#X connect 63 2 83 0;
#X connect 63 2 85 0;
#X connect 63 2 87 0;
#X connect 63 2 100 0;
#X connect 64 0 49 0;
#X connect 65 0 48 0;
#X connect 66 0 47 0;
#X connect 67 0 50 0;
#X connect 68 0 51 0;
#X connect 69 0 52 0;
#X connect 70 0 67 0;
#X connect 71 0 68 0;
#X connect 72 0 69 0;
#X connect 73 0 64 0;
#X connect 74 0 65 0;
#X connect 75 0 66 0;
#X connect 75 0 54 0;
#X connect 76 0 84 0;
#X connect 77 0 75 0;
#X connect 77 1 78 0;
#X connect 78 0 84 0;
#X connect 79 0 74 0;
#X connect 79 1 80 0;
#X connect 80 0 86 0;
#X connect 81 0 73 0;
#X connect 81 1 82 0;
#X connect 82 0 88 0;
#X connect 83 0 66 1;
#X connect 83 0 55 0;
#X connect 84 0 66 2;
#X connect 84 0 56 0;
#X connect 85 0 65 1;
#X connect 86 0 65 2;
#X connect 87 0 64 1;
#X connect 88 0 64 2;
#X connect 89 0 67 1;
#X connect 90 0 68 1;
#X connect 91 0 69 1;
#X connect 92 0 70 0;
#X connect 92 1 93 0;
#X connect 93 0 89 0;
#X connect 94 0 71 0;
#X connect 94 1 96 0;
#X connect 95 0 72 0;
#X connect 95 1 97 0;
#X connect 96 0 90 0;
#X connect 97 0 91 0;
#X connect 98 0 101 0;
#X connect 102 0 83 0;
#X connect 103 0 75 0;
#X connect 103 1 102 0;
#X connect 103 2 76 0;
#X restore 12 876 pd phrases-midi;
#N canvas 273 0 609 554 phrases-lua-wrapper 0;
#X obj 8 517 s phrases-midi-out;
#X obj 84 28 r phrases-midi-in;
#X obj 304 28 r phrases-editor-color1;
#X obj 319 47 r phrases-editor-color2;
#X obj 335 66 r phrases-editor-color3;
#X obj 351 85 r phrases-editor-color4;
#X obj 100 47 r phrases-key;
#X obj 8 397 t l l;
#X obj 35 420 unpack f f f;
#X obj 35 469 - 16;
#X obj 35 493 pack f f f;
#X obj 194 161 r phrases-bpm;
#X obj 210 180 r phrases-tpb;
#X obj 225 199 r phrases-gate;
#X obj 163 123 r phrases-save-filename;
#X obj 147 104 r phrases-load-filename;
#X obj 241 218 r phrases-monome-x;
#X obj 257 237 r phrases-monome-y;
#X obj 272 256 r phrases-editor-cellsx;
#X obj 288 275 r phrases-editor-cellsy;
#X obj 178 142 r phrases-save-path;
#X obj 35 445 pipe f f f 100;
#X obj 69 319 phrases-editor-and-sequencer - - - - - - - - - - - -
- - -;
#X obj 99 392 s phrases-midi-out;
#X obj 31 168 bng 15 250 50 0 empty empty empty 17 7 0 10 -262144 -1
-1;
#X obj 116 66 r phrases-tempobang;
#X obj 31 133 bng 15 250 50 0 empty empty empty 17 7 0 10 -262144 -1
-1;
#X obj 31 98 bng 15 250 50 0 empty empty empty 17 7 0 10 -262144 -1
-1;
#X obj 69 9 r phrases-commands;
#X obj 366 104 r phrases-grid-color1;
#X obj 382 123 r phrases-grid-color2;
#X obj 398 142 r phrases-grid-color3;
#X obj 414 161 r phrases-grid-color4;
#X obj 216 361 s phrases-osc-out;
#X obj 327 379 unpack f f f;
#X obj 384 463 != 1;
#X obj 327 519 s phrases-osc-out;
#X obj 408 379 r phrases-tick-length;
#X obj 408 404 / 2;
#X obj 327 490 pack f f f;
#X obj 234 440 pipe f f f 100;
#X obj 131 85 r phrases-gatebang;
#X obj 31 202 bng 15 250 50 0 empty empty empty 17 7 0 10 -262144 -1
-1;
#X obj 414 351 s phrases-color-sender;
#X connect 1 0 27 0;
#X connect 1 0 22 1;
#X connect 2 0 22 15;
#X connect 3 0 22 16;
#X connect 4 0 22 17;
#X connect 5 0 22 18;
#X connect 6 0 26 0;
#X connect 6 0 22 2;
#X connect 7 0 0 0;
#X connect 7 1 8 0;
#X connect 8 0 21 0;
#X connect 8 1 21 1;
#X connect 8 2 21 2;
#X connect 9 0 10 0;
#X connect 10 0 0 0;
#X connect 11 0 22 8;
#X connect 12 0 22 9;
#X connect 13 0 22 10;
#X connect 14 0 22 6;
#X connect 15 0 22 5;
#X connect 16 0 22 11;
#X connect 17 0 22 12;
#X connect 18 0 22 13;
#X connect 19 0 22 14;
#X connect 20 0 22 7;
#X connect 21 0 9 0;
#X connect 21 1 10 1;
#X connect 21 2 10 2;
#X connect 22 0 7 0;
#X connect 22 1 23 0;
#X connect 22 2 33 0;
#X connect 22 3 34 0;
#X connect 22 4 43 0;
#X connect 25 0 24 0;
#X connect 25 0 22 3;
#X connect 28 0 22 0;
#X connect 29 0 22 19;
#X connect 30 0 22 20;
#X connect 31 0 22 21;
#X connect 32 0 22 22;
#X connect 34 0 39 0;
#X connect 34 0 40 0;
#X connect 34 1 39 1;
#X connect 34 1 40 1;
#X connect 34 2 35 0;
#X connect 34 2 40 2;
#X connect 35 0 39 2;
#X connect 37 0 38 0;
#X connect 38 0 40 3;
#X connect 39 0 36 0;
#X connect 40 0 39 0;
#X connect 40 1 39 1;
#X connect 40 2 39 2;
#X connect 41 0 22 4;
#X connect 41 0 42 0;
#X restore 12 1163 pd phrases-lua-wrapper;
#X connect 8 0 21 0;
#X connect 9 0 21 0;
#X connect 10 0 21 0;
#X connect 11 0 21 0;
#X connect 12 0 21 0;
#X connect 13 0 21 0;
#X connect 14 0 21 0;
#X connect 15 0 21 0;
#X connect 16 0 21 0;
#X connect 17 0 21 0;
#X connect 18 0 21 0;
#X connect 19 0 21 0;
#X connect 20 0 21 0;
#X connect 24 0 39 0;
#X connect 25 0 39 0;
#X connect 26 0 39 0;
#X connect 27 0 39 0;
#X connect 28 0 39 0;
#X connect 29 0 39 0;
#X connect 30 0 39 0;
#X connect 31 0 39 0;
#X connect 32 0 39 0;
#X connect 33 0 39 0;
#X connect 34 0 39 0;
#X connect 35 0 39 0;
#X connect 36 0 39 0;
#X connect 37 0 39 0;
#X connect 38 0 39 0;
#X connect 43 0 56 0;
#X connect 44 0 56 0;
#X connect 45 0 56 0;
#X connect 46 0 56 0;
#X connect 47 0 56 0;
#X connect 48 0 56 0;
#X connect 49 0 56 0;
#X connect 50 0 56 0;
#X connect 51 0 56 0;
#X connect 52 0 56 0;
#X connect 53 0 56 0;
#X connect 54 0 56 0;
#X connect 55 0 56 0;
#X connect 57 0 56 0;
#X connect 58 0 56 0;
#X connect 59 0 21 0;
#X connect 60 0 21 0;
#X connect 61 0 21 0;
#X connect 62 0 56 0;
#X connect 63 0 39 0;
