#N canvas 243 97 397 324 10;
#X obj 109 67 t f f f;
#X obj 48 117 outlet;
#X obj 148 164 outlet;
#X obj 95 164 outlet;
#X obj 109 34 inlet;
#X obj 95 139 min 255;
#X obj 148 139 max 0;
#X obj 148 117 - 40;
#X obj 95 117 + 40;
#X connect 0 0 7 0;
#X connect 0 1 8 0;
#X connect 0 2 1 0;
#X connect 4 0 0 0;
#X connect 5 0 3 0;
#X connect 6 0 2 0;
#X connect 7 0 6 0;
#X connect 8 0 5 0;
