#N canvas 83 8 280 399 10;
#X obj 22 82 * 256;
#X obj 43 150 +;
#X obj 43 174 * 256;
#X obj 79 242 +;
#X obj 79 266 * -1;
#X obj 79 291 - 1;
#X obj 79 339 outlet;
#X obj 22 17 inlet;
#X obj 58 17 inlet;
#X obj 94 17 inlet;
#X msg 79 315 color \$1;
#X obj 94 46 t b b f;
#X obj 58 46 t b f;
#X connect 0 0 1 0;
#X connect 1 0 2 0;
#X connect 2 0 3 0;
#X connect 3 0 4 0;
#X connect 4 0 5 0;
#X connect 5 0 10 0;
#X connect 7 0 0 0;
#X connect 8 0 12 0;
#X connect 9 0 11 0;
#X connect 10 0 6 0;
#X connect 11 0 1 0;
#X connect 11 1 0 0;
#X connect 11 2 3 1;
#X connect 12 0 0 0;
#X connect 12 1 1 1;
