#N canvas 57 0 346 554 10;
#N canvas 194 0 814 557 phrases-editor-gui 1;
#X obj 4 2 cnv 9 101 9 empty 0-0-editor-button 1. -1 1 6 0 9 -137321
-174763 0;
#X obj 109 2 cnv 9 101 9 empty 0-1-editor-button 1. -1 1 6 0 9 -137321
-174763 0;
#X obj 214 2 cnv 9 101 9 empty 0-2-editor-button 1. -1 1 6 0 9 -137321
-174763 0;
#X obj 319 2 cnv 9 101 9 empty 0-3-editor-button 1. -1 1 6 0 9 -137321
-174763 0;
#X obj 424 2 cnv 9 101 9 empty 0-4-editor-button 1. -1 1 6 0 9 -137321
-174763 0;
#X obj 529 2 cnv 9 101 9 empty 0-5-editor-button 1. -1 1 6 0 9 -137321
-174763 0;
#X obj 4 13 cnv 9 101 9 empty 1-0-editor-button 2. -1 1 6 0 9 -137321
-174763 0;
#X obj 109 13 cnv 9 101 9 empty 1-1-editor-button 2. -1 1 6 0 9 -137321
-174763 0;
#X obj 214 13 cnv 9 101 9 empty 1-2-editor-button 2. -1 1 6 0 9 -174781
-262144 0;
#X obj 319 13 cnv 9 101 9 empty 1-3-editor-button 2. -1 1 6 0 9 -137321
-174763 0;
#X obj 424 13 cnv 9 101 9 empty 1-4-editor-button 2. -1 1 6 0 9 -137321
-174763 0;
#X obj 529 13 cnv 9 101 9 empty 1-5-editor-button 2. -1 1 6 0 9 -137321
-174763 0;
#X obj 4 24 cnv 9 101 9 empty 2-0-editor-button 3. -1 1 6 0 9 -137321
-174763 0;
#X obj 109 24 cnv 9 101 9 empty 2-1-editor-button 3. -1 1 6 0 9 -137321
-174763 0;
#X obj 214 24 cnv 9 101 9 empty 2-2-editor-button 3. 144 17 127 1 6
0 9 -225813 -262144 0;
#X obj 319 24 cnv 9 101 9 empty 2-3-editor-button 3. -1 1 6 0 9 -137321
-174763 0;
#X obj 424 24 cnv 9 101 9 empty 2-4-editor-button 3. -1 1 6 0 9 -137321
-174763 0;
#X obj 529 24 cnv 9 101 9 empty 2-5-editor-button 3. -1 1 6 0 9 -137321
-174763 0;
#X obj 4 35 cnv 9 101 9 empty 3-0-editor-button 4. -1 1 6 0 9 -137321
-174763 0;
#X obj 109 35 cnv 9 101 9 empty 3-1-editor-button 4. -1 1 6 0 9 -137321
-174763 0;
#X obj 214 35 cnv 9 101 9 empty 3-2-editor-button 4. 144 28 127 1 6
0 9 -225813 -262144 0;
#X obj 319 35 cnv 9 101 9 empty 3-3-editor-button 4. -1 1 6 0 9 -137321
-174763 0;
#X obj 424 35 cnv 9 101 9 empty 3-4-editor-button 4. -1 1 6 0 9 -137321
-174763 0;
#X obj 529 35 cnv 9 101 9 empty 3-5-editor-button 4. -1 1 6 0 9 -137321
-174763 0;
#X obj 4 46 cnv 9 101 9 empty 4-0-editor-button 1. -1 1 6 0 9 -137321
-174763 0;
#X obj 109 46 cnv 9 101 9 empty 4-1-editor-button 1. -1 1 6 0 9 -137321
-174763 0;
#X obj 214 46 cnv 9 101 9 empty 4-2-editor-button 5. 144 28 127 1 6
0 9 -225813 -262144 0;
#X obj 319 46 cnv 9 101 9 empty 4-3-editor-button 1. -1 1 6 0 9 -137321
-174763 0;
#X obj 424 46 cnv 9 101 9 empty 4-4-editor-button 1. -1 1 6 0 9 -137321
-174763 0;
#X obj 529 46 cnv 9 101 9 empty 4-5-editor-button 1. -1 1 6 0 9 -137321
-174763 0;
#X obj 4 57 cnv 9 101 9 empty 5-0-editor-button 2. -1 1 6 0 9 -137321
-174763 0;
#X obj 109 57 cnv 9 101 9 empty 5-1-editor-button 2. -1 1 6 0 9 -137321
-174763 0;
#X obj 214 57 cnv 9 101 9 empty 5-2-editor-button 6. 144 28 127 1 6
0 9 -225813 -262144 0;
#X obj 319 57 cnv 9 101 9 empty 5-3-editor-button 2. -1 1 6 0 9 -137321
-174763 0;
#X obj 424 57 cnv 9 101 9 empty 5-4-editor-button 2. -1 1 6 0 9 -137321
-174763 0;
#X obj 529 57 cnv 9 101 9 empty 5-5-editor-button 2. -1 1 6 0 9 -137321
-174763 0;
#X obj 4 68 cnv 9 101 9 empty 6-0-editor-button 3. -1 1 6 0 9 -137321
-174763 0;
#X obj 109 68 cnv 9 101 9 empty 6-1-editor-button 3. -1 1 6 0 9 -137321
-174763 0;
#X obj 214 68 cnv 9 101 9 empty 6-2-editor-button 7. 144 28 127 1 6
0 9 -225813 -262144 0;
#X obj 319 68 cnv 9 101 9 empty 6-3-editor-button 3. -1 1 6 0 9 -137321
-174763 0;
#X obj 424 68 cnv 9 101 9 empty 6-4-editor-button 3. -1 1 6 0 9 -137321
-174763 0;
#X obj 529 68 cnv 9 101 9 empty 6-5-editor-button 3. -1 1 6 0 9 -137321
-174763 0;
#X obj 4 79 cnv 9 101 9 empty 7-0-editor-button 4. -1 1 6 0 9 -137321
-174763 0;
#X obj 109 79 cnv 9 101 9 empty 7-1-editor-button 4. -1 1 6 0 9 -137321
-174763 0;
#X obj 214 79 cnv 9 101 9 empty 7-2-editor-button 8. 144 28 127 1 6
0 9 -225813 -262144 0;
#X obj 319 79 cnv 9 101 9 empty 7-3-editor-button 4. -1 1 6 0 9 -137321
-174763 0;
#X obj 424 79 cnv 9 101 9 empty 7-4-editor-button 4. -1 1 6 0 9 -137321
-174763 0;
#X obj 529 79 cnv 9 101 9 empty 7-5-editor-button 4. -1 1 6 0 9 -137321
-174763 0;
#X obj 4 90 cnv 9 101 9 empty 8-0-editor-button 1. -1 1 6 0 9 -137321
-174763 0;
#X obj 109 90 cnv 9 101 9 empty 8-1-editor-button 1. -1 1 6 0 9 -137321
-174763 0;
#X obj 214 90 cnv 9 101 9 empty 8-2-editor-button 9. 144 28 127 1 6
0 9 -225813 -262144 0;
#X obj 319 90 cnv 9 101 9 empty 8-3-editor-button 1. -1 1 6 0 9 -137321
-174763 0;
#X obj 424 90 cnv 9 101 9 empty 8-4-editor-button 1. -1 1 6 0 9 -137321
-174763 0;
#X obj 529 90 cnv 9 101 9 empty 8-5-editor-button 1. -1 1 6 0 9 -137321
-174763 0;
#X obj 4 101 cnv 9 101 9 empty 9-0-editor-button 2. -1 1 6 0 9 -137321
-174763 0;
#X obj 109 101 cnv 9 101 9 empty 9-1-editor-button 2. -1 1 6 0 9 -137321
-174763 0;
#X obj 214 101 cnv 9 101 9 empty 9-2-editor-button 10. 144 28 127 1
6 0 9 -225813 -262144 0;
#X obj 319 101 cnv 9 101 9 empty 9-3-editor-button 2. -1 1 6 0 9 -137321
-174763 0;
#X obj 424 101 cnv 9 101 9 empty 9-4-editor-button 2. -1 1 6 0 9 -137321
-174763 0;
#X obj 529 101 cnv 9 101 9 empty 9-5-editor-button 2. -1 1 6 0 9 -137321
-174763 0;
#X obj 4 112 cnv 9 101 9 empty 10-0-editor-button 3. -1 1 6 0 9 -174763
-137321 0;
#X obj 109 112 cnv 9 101 9 empty 10-1-editor-button 3. -1 1 6 0 9 -174763
-137321 0;
#X obj 214 112 cnv 9 101 9 empty 10-2-editor-button 11. -1 1 6 0 9
-262144 -174781 0;
#X obj 319 112 cnv 9 101 9 empty 10-3-editor-button 3. -1 1 6 0 9 -174763
-137321 0;
#X obj 424 112 cnv 9 101 9 empty 10-4-editor-button 3. -1 1 6 0 9 -174763
-137321 0;
#X obj 529 112 cnv 9 101 9 empty 10-5-editor-button 3. -1 1 6 0 9 -174763
-137321 0;
#X obj 4 123 cnv 9 101 9 empty 11-0-editor-button 4. -1 1 6 0 9 -137321
-174763 0;
#X obj 109 123 cnv 9 101 9 empty 11-1-editor-button 4. -1 1 6 0 9 -137321
-174763 0;
#X obj 214 123 cnv 9 101 9 empty 11-2-editor-button 12. 144 17 127
1 6 0 9 -225813 -262144 0;
#X obj 319 123 cnv 9 101 9 empty 11-3-editor-button 4. -1 1 6 0 9 -137321
-174763 0;
#X obj 424 123 cnv 9 101 9 empty 11-4-editor-button 4. -1 1 6 0 9 -137321
-174763 0;
#X obj 529 123 cnv 9 101 9 empty 11-5-editor-button 4. -1 1 6 0 9 -137321
-174763 0;
#X obj 4 134 cnv 9 101 9 empty 12-0-editor-button 1. -1 1 6 0 9 -137321
-174763 0;
#X obj 109 134 cnv 9 101 9 empty 12-1-editor-button 1. -1 1 6 0 9 -137321
-174763 0;
#X obj 214 134 cnv 9 101 9 empty 12-2-editor-button 13. -1 1 6 0 9
-174781 -262144 0;
#X obj 319 134 cnv 9 101 9 empty 12-3-editor-button 1. -1 1 6 0 9 -137321
-174763 0;
#X obj 424 134 cnv 9 101 9 empty 12-4-editor-button 1. -1 1 6 0 9 -137321
-174763 0;
#X obj 529 134 cnv 9 101 9 empty 12-5-editor-button 1. -1 1 6 0 9 -137321
-174763 0;
#X obj 4 145 cnv 9 101 9 empty 13-0-editor-button 2. -1 1 6 0 9 -137321
-174763 0;
#X obj 109 145 cnv 9 101 9 empty 13-1-editor-button 2. -1 1 6 0 9 -137321
-174763 0;
#X obj 214 145 cnv 9 101 9 empty 13-2-editor-button 1. -1 1 6 0 9 -137321
-174763 0;
#X obj 319 145 cnv 9 101 9 empty 13-3-editor-button 2. -1 1 6 0 9 -137321
-174763 0;
#X obj 424 145 cnv 9 101 9 empty 13-4-editor-button 2. -1 1 6 0 9 -137321
-174763 0;
#X obj 529 145 cnv 9 101 9 empty 13-5-editor-button 2. -1 1 6 0 9 -137321
-174763 0;
#X obj 4 156 cnv 9 101 9 empty 14-0-editor-button 3. -1 1 6 0 9 -137321
-174763 0;
#X obj 109 156 cnv 9 101 9 empty 14-1-editor-button 3. -1 1 6 0 9 -137321
-174763 0;
#X obj 214 156 cnv 9 101 9 empty 14-2-editor-button 2. -1 1 6 0 9 -174781
-262144 0;
#X obj 319 156 cnv 9 101 9 empty 14-3-editor-button 3. -1 1 6 0 9 -137321
-174763 0;
#X obj 424 156 cnv 9 101 9 empty 14-4-editor-button 3. -1 1 6 0 9 -137321
-174763 0;
#X obj 529 156 cnv 9 101 9 empty 14-5-editor-button 3. -1 1 6 0 9 -137321
-174763 0;
#X obj 4 167 cnv 9 101 9 empty 15-0-editor-button 4. -1 1 6 0 9 -137321
-174763 0;
#X obj 109 167 cnv 9 101 9 empty 15-1-editor-button 4. -1 1 6 0 9 -137321
-174763 0;
#X obj 214 167 cnv 9 101 9 empty 15-2-editor-button 3. 144 17 127 1
6 0 9 -225813 -262144 0;
#X obj 319 167 cnv 9 101 9 empty 15-3-editor-button 4. -1 1 6 0 9 -137321
-174763 0;
#X obj 424 167 cnv 9 101 9 empty 15-4-editor-button 4. -1 1 6 0 9 -137321
-174763 0;
#X obj 529 167 cnv 9 101 9 empty 15-5-editor-button 4. -1 1 6 0 9 -137321
-174763 0;
#X obj 4 178 cnv 9 101 9 empty 16-0-editor-button 1. -1 1 6 0 9 -137321
-174763 0;
#X obj 109 178 cnv 9 101 9 empty 16-1-editor-button 1. -1 1 6 0 9 -137321
-174763 0;
#X obj 214 178 cnv 9 101 9 empty 16-2-editor-button 4. 144 28 127 1
6 0 9 -225813 -262144 0;
#X obj 319 178 cnv 9 101 9 empty 16-3-editor-button 1. -1 1 6 0 9 -137321
-174763 0;
#X obj 424 178 cnv 9 101 9 empty 16-4-editor-button 1. -1 1 6 0 9 -137321
-174763 0;
#X obj 529 178 cnv 9 101 9 empty 16-5-editor-button 1. -1 1 6 0 9 -137321
-174763 0;
#X obj 4 189 cnv 9 101 9 empty 17-0-editor-button 2. -1 1 6 0 9 -137321
-174763 0;
#X obj 109 189 cnv 9 101 9 empty 17-1-editor-button 2. -1 1 6 0 9 -137321
-174763 0;
#X obj 214 189 cnv 9 101 9 empty 17-2-editor-button 5. 144 28 127 1
6 0 9 -225813 -262144 0;
#X obj 319 189 cnv 9 101 9 empty 17-3-editor-button 2. -1 1 6 0 9 -137321
-174763 0;
#X obj 424 189 cnv 9 101 9 empty 17-4-editor-button 2. -1 1 6 0 9 -137321
-174763 0;
#X obj 529 189 cnv 9 101 9 empty 17-5-editor-button 2. -1 1 6 0 9 -137321
-174763 0;
#X obj 4 200 cnv 9 101 9 empty 18-0-editor-button 3. -1 1 6 0 9 -137321
-174763 0;
#X obj 109 200 cnv 9 101 9 empty 18-1-editor-button 3. -1 1 6 0 9 -137321
-174763 0;
#X obj 214 200 cnv 9 101 9 empty 18-2-editor-button 6. 144 28 127 1
6 0 9 -225813 -262144 0;
#X obj 319 200 cnv 9 101 9 empty 18-3-editor-button 3. -1 1 6 0 9 -137321
-174763 0;
#X obj 424 200 cnv 9 101 9 empty 18-4-editor-button 3. -1 1 6 0 9 -137321
-174763 0;
#X obj 529 200 cnv 9 101 9 empty 18-5-editor-button 3. -1 1 6 0 9 -137321
-174763 0;
#X obj 4 211 cnv 9 101 9 empty 19-0-editor-button 4. -1 1 6 0 9 -137321
-174763 0;
#X obj 109 211 cnv 9 101 9 empty 19-1-editor-button 4. -1 1 6 0 9 -137321
-174763 0;
#X obj 214 211 cnv 9 101 9 empty 19-2-editor-button 7. 144 28 127 1
6 0 9 -225813 -262144 0;
#X obj 319 211 cnv 9 101 9 empty 19-3-editor-button 4. -1 1 6 0 9 -137321
-174763 0;
#X obj 424 211 cnv 9 101 9 empty 19-4-editor-button 4. -1 1 6 0 9 -137321
-174763 0;
#X obj 529 211 cnv 9 101 9 empty 19-5-editor-button 4. -1 1 6 0 9 -137321
-174763 0;
#X obj 4 222 cnv 9 101 9 empty 20-0-editor-button 1. -1 1 6 0 9 -137321
-174763 0;
#X obj 109 222 cnv 9 101 9 empty 20-1-editor-button 1. -1 1 6 0 9 -137321
-174763 0;
#X obj 214 222 cnv 9 101 9 empty 20-2-editor-button 8. 144 28 127 1
6 0 9 -225813 -262144 0;
#X obj 319 222 cnv 9 101 9 empty 20-3-editor-button 1. -1 1 6 0 9 -137321
-174763 0;
#X obj 424 222 cnv 9 101 9 empty 20-4-editor-button 1. -1 1 6 0 9 -137321
-174763 0;
#X obj 529 222 cnv 9 101 9 empty 20-5-editor-button 1. -1 1 6 0 9 -137321
-174763 0;
#X obj 4 233 cnv 9 101 9 empty 21-0-editor-button 2. -1 1 6 0 9 -137321
-174763 0;
#X obj 109 233 cnv 9 101 9 empty 21-1-editor-button 2. -1 1 6 0 9 -137321
-174763 0;
#X obj 214 233 cnv 9 101 9 empty 21-2-editor-button 9. 144 28 127 1
6 0 9 -225813 -262144 0;
#X obj 319 233 cnv 9 101 9 empty 21-3-editor-button 2. -1 1 6 0 9 -137321
-174763 0;
#X obj 424 233 cnv 9 101 9 empty 21-4-editor-button 2. -1 1 6 0 9 -137321
-174763 0;
#X obj 529 233 cnv 9 101 9 empty 21-5-editor-button 2. -1 1 6 0 9 -137321
-174763 0;
#X obj 4 244 cnv 9 101 9 empty 22-0-editor-button 3. -1 1 6 0 9 -137321
-174763 0;
#X obj 109 244 cnv 9 101 9 empty 22-1-editor-button 3. -1 1 6 0 9 -137321
-174763 0;
#X obj 214 244 cnv 9 101 9 empty 22-2-editor-button 10. 144 28 127
1 6 0 9 -225813 -262144 0;
#X obj 319 244 cnv 9 101 9 empty 22-3-editor-button 3. -1 1 6 0 9 -137321
-174763 0;
#X obj 424 244 cnv 9 101 9 empty 22-4-editor-button 3. -1 1 6 0 9 -137321
-174763 0;
#X obj 529 244 cnv 9 101 9 empty 22-5-editor-button 3. -1 1 6 0 9 -137321
-174763 0;
#X obj 4 255 cnv 9 101 9 empty 23-0-editor-button 4. -1 1 6 0 9 -137321
-174763 0;
#X obj 109 255 cnv 9 101 9 empty 23-1-editor-button 4. -1 1 6 0 9 -137321
-174763 0;
#X obj 214 255 cnv 9 101 9 empty 23-2-editor-button 11. -1 1 6 0 9
-174781 -262144 0;
#X obj 319 255 cnv 9 101 9 empty 23-3-editor-button 4. -1 1 6 0 9 -137321
-174763 0;
#X obj 424 255 cnv 9 101 9 empty 23-4-editor-button 4. -1 1 6 0 9 -137321
-174763 0;
#X obj 529 255 cnv 9 101 9 empty 23-5-editor-button 4. -1 1 6 0 9 -137321
-174763 0;
#X obj 4 266 cnv 9 101 9 empty 24-0-editor-button 1. -1 1 6 0 9 -137321
-174763 0;
#X obj 109 266 cnv 9 101 9 empty 24-1-editor-button 1. -1 1 6 0 9 -137321
-174763 0;
#X obj 214 266 cnv 9 101 9 empty 24-2-editor-button 12. 144 17 127
1 6 0 9 -225813 -262144 0;
#X obj 319 266 cnv 9 101 9 empty 24-3-editor-button 1. -1 1 6 0 9 -137321
-174763 0;
#X obj 424 266 cnv 9 101 9 empty 24-4-editor-button 1. -1 1 6 0 9 -137321
-174763 0;
#X obj 529 266 cnv 9 101 9 empty 24-5-editor-button 1. -1 1 6 0 9 -137321
-174763 0;
#X obj 4 277 cnv 9 101 9 empty 25-0-editor-button 2. -1 1 6 0 9 -137321
-174763 0;
#X obj 109 277 cnv 9 101 9 empty 25-1-editor-button 2. -1 1 6 0 9 -137321
-174763 0;
#X obj 214 277 cnv 9 101 9 empty 25-2-editor-button 13. -1 1 6 0 9
-174781 -262144 0;
#X obj 319 277 cnv 9 101 9 empty 25-3-editor-button 2. -1 1 6 0 9 -137321
-174763 0;
#X obj 424 277 cnv 9 101 9 empty 25-4-editor-button 2. -1 1 6 0 9 -137321
-174763 0;
#X obj 529 277 cnv 9 101 9 empty 25-5-editor-button 2. -1 1 6 0 9 -137321
-174763 0;
#X obj 4 288 cnv 9 101 9 empty 26-0-editor-button 3. -1 1 6 0 9 -137321
-174763 0;
#X obj 109 288 cnv 9 101 9 empty 26-1-editor-button 3. -1 1 6 0 9 -137321
-174763 0;
#X obj 214 288 cnv 9 101 9 empty 26-2-editor-button 1. -1 1 6 0 9 -137321
-174763 0;
#X obj 319 288 cnv 9 101 9 empty 26-3-editor-button 3. -1 1 6 0 9 -137321
-174763 0;
#X obj 424 288 cnv 9 101 9 empty 26-4-editor-button 3. -1 1 6 0 9 -137321
-174763 0;
#X obj 529 288 cnv 9 101 9 empty 26-5-editor-button 3. -1 1 6 0 9 -137321
-174763 0;
#X obj 4 299 cnv 9 101 9 empty 27-0-editor-button 4. -1 1 6 0 9 -137321
-174763 0;
#X obj 109 299 cnv 9 101 9 empty 27-1-editor-button 4. -1 1 6 0 9 -137321
-174763 0;
#X obj 214 299 cnv 9 101 9 empty 27-2-editor-button 2. -1 1 6 0 9 -174781
-262144 0;
#X obj 319 299 cnv 9 101 9 empty 27-3-editor-button 4. -1 1 6 0 9 -137321
-174763 0;
#X obj 424 299 cnv 9 101 9 empty 27-4-editor-button 4. -1 1 6 0 9 -137321
-174763 0;
#X obj 529 299 cnv 9 101 9 empty 27-5-editor-button 4. -1 1 6 0 9 -137321
-174763 0;
#X obj 4 310 cnv 9 101 9 empty 28-0-editor-button 1. -1 1 6 0 9 -137321
-174763 0;
#X obj 109 310 cnv 9 101 9 empty 28-1-editor-button 1. -1 1 6 0 9 -137321
-174763 0;
#X obj 214 310 cnv 9 101 9 empty 28-2-editor-button 3. 144 17 127 1
6 0 9 -225813 -262144 0;
#X obj 319 310 cnv 9 101 9 empty 28-3-editor-button 1. -1 1 6 0 9 -137321
-174763 0;
#X obj 424 310 cnv 9 101 9 empty 28-4-editor-button 1. -1 1 6 0 9 -137321
-174763 0;
#X obj 529 310 cnv 9 101 9 empty 28-5-editor-button 1. -1 1 6 0 9 -137321
-174763 0;
#X obj 4 321 cnv 9 101 9 empty 29-0-editor-button 2. -1 1 6 0 9 -137321
-174763 0;
#X obj 109 321 cnv 9 101 9 empty 29-1-editor-button 2. -1 1 6 0 9 -137321
-174763 0;
#X obj 214 321 cnv 9 101 9 empty 29-2-editor-button 4. 144 28 127 1
6 0 9 -225813 -262144 0;
#X obj 319 321 cnv 9 101 9 empty 29-3-editor-button 2. -1 1 6 0 9 -137321
-174763 0;
#X obj 424 321 cnv 9 101 9 empty 29-4-editor-button 2. -1 1 6 0 9 -137321
-174763 0;
#X obj 529 321 cnv 9 101 9 empty 29-5-editor-button 2. -1 1 6 0 9 -137321
-174763 0;
#X obj 4 332 cnv 9 101 9 empty 30-0-editor-button 3. -1 1 6 0 9 -137321
-174763 0;
#X obj 109 332 cnv 9 101 9 empty 30-1-editor-button 3. -1 1 6 0 9 -137321
-174763 0;
#X obj 214 332 cnv 9 101 9 empty 30-2-editor-button 5. 144 28 127 1
6 0 9 -225813 -262144 0;
#X obj 319 332 cnv 9 101 9 empty 30-3-editor-button 3. -1 1 6 0 9 -137321
-174763 0;
#X obj 424 332 cnv 9 101 9 empty 30-4-editor-button 3. -1 1 6 0 9 -137321
-174763 0;
#X obj 529 332 cnv 9 101 9 empty 30-5-editor-button 3. -1 1 6 0 9 -137321
-174763 0;
#X obj 4 343 cnv 9 101 9 empty 31-0-editor-button 4. -1 1 6 0 9 -137321
-174763 0;
#X obj 109 343 cnv 9 101 9 empty 31-1-editor-button 4. -1 1 6 0 9 -137321
-174763 0;
#X obj 214 343 cnv 9 101 9 empty 31-2-editor-button 6. 144 28 127 1
6 0 9 -225813 -262144 0;
#X obj 319 343 cnv 9 101 9 empty 31-3-editor-button 4. -1 1 6 0 9 -137321
-174763 0;
#X obj 424 343 cnv 9 101 9 empty 31-4-editor-button 4. -1 1 6 0 9 -137321
-174763 0;
#X obj 529 343 cnv 9 101 9 empty 31-5-editor-button 4. -1 1 6 0 9 -137321
-174763 0;
#X obj 4 354 cnv 9 101 9 empty 32-0-editor-button 1. -1 1 6 0 9 -137321
-174763 0;
#X obj 109 354 cnv 9 101 9 empty 32-1-editor-button 1. -1 1 6 0 9 -137321
-174763 0;
#X obj 214 354 cnv 9 101 9 empty 32-2-editor-button 7. 144 28 127 1
6 0 9 -225813 -262144 0;
#X obj 319 354 cnv 9 101 9 empty 32-3-editor-button 1. -1 1 6 0 9 -137321
-174763 0;
#X obj 424 354 cnv 9 101 9 empty 32-4-editor-button 1. -1 1 6 0 9 -137321
-174763 0;
#X obj 529 354 cnv 9 101 9 empty 32-5-editor-button 1. -1 1 6 0 9 -137321
-174763 0;
#X obj 4 365 cnv 9 101 9 empty 33-0-editor-button 2. -1 1 6 0 9 -137321
-174763 0;
#X obj 109 365 cnv 9 101 9 empty 33-1-editor-button 2. -1 1 6 0 9 -137321
-174763 0;
#X obj 214 365 cnv 9 101 9 empty 33-2-editor-button 8. 144 28 127 1
6 0 9 -225813 -262144 0;
#X obj 319 365 cnv 9 101 9 empty 33-3-editor-button 2. -1 1 6 0 9 -137321
-174763 0;
#X obj 424 365 cnv 9 101 9 empty 33-4-editor-button 2. -1 1 6 0 9 -137321
-174763 0;
#X obj 529 365 cnv 9 101 9 empty 33-5-editor-button 2. -1 1 6 0 9 -137321
-174763 0;
#X obj 4 376 cnv 9 101 9 empty 34-0-editor-button 3. -1 1 6 0 9 -137321
-174763 0;
#X obj 109 376 cnv 9 101 9 empty 34-1-editor-button 3. -1 1 6 0 9 -137321
-174763 0;
#X obj 214 376 cnv 9 101 9 empty 34-2-editor-button 9. 144 28 127 1
6 0 9 -225813 -262144 0;
#X obj 319 376 cnv 9 101 9 empty 34-3-editor-button 3. -1 1 6 0 9 -137321
-174763 0;
#X obj 424 376 cnv 9 101 9 empty 34-4-editor-button 3. -1 1 6 0 9 -137321
-174763 0;
#X obj 529 376 cnv 9 101 9 empty 34-5-editor-button 3. -1 1 6 0 9 -137321
-174763 0;
#X obj 4 387 cnv 9 101 9 empty 35-0-editor-button 4. -1 1 6 0 9 -137321
-174763 0;
#X obj 109 387 cnv 9 101 9 empty 35-1-editor-button 4. -1 1 6 0 9 -137321
-174763 0;
#X obj 214 387 cnv 9 101 9 empty 35-2-editor-button 10. 144 28 127
1 6 0 9 -225813 -262144 0;
#X obj 319 387 cnv 9 101 9 empty 35-3-editor-button 4. -1 1 6 0 9 -137321
-174763 0;
#X obj 424 387 cnv 9 101 9 empty 35-4-editor-button 4. -1 1 6 0 9 -137321
-174763 0;
#X obj 529 387 cnv 9 101 9 empty 35-5-editor-button 4. -1 1 6 0 9 -137321
-174763 0;
#X obj 4 398 cnv 9 101 9 empty 36-0-editor-button 1. -1 1 6 0 9 -137321
-174763 0;
#X obj 109 398 cnv 9 101 9 empty 36-1-editor-button 1. -1 1 6 0 9 -137321
-174763 0;
#X obj 214 398 cnv 9 101 9 empty 36-2-editor-button 11. -1 1 6 0 9
-174781 -262144 0;
#X obj 319 398 cnv 9 101 9 empty 36-3-editor-button 1. -1 1 6 0 9 -137321
-174763 0;
#X obj 424 398 cnv 9 101 9 empty 36-4-editor-button 1. -1 1 6 0 9 -137321
-174763 0;
#X obj 529 398 cnv 9 101 9 empty 36-5-editor-button 1. -1 1 6 0 9 -137321
-174763 0;
#X obj 4 409 cnv 9 101 9 empty 37-0-editor-button 2. -1 1 6 0 9 -137321
-174763 0;
#X obj 109 409 cnv 9 101 9 empty 37-1-editor-button 2. -1 1 6 0 9 -137321
-174763 0;
#X obj 214 409 cnv 9 101 9 empty 37-2-editor-button 12. 144 17 127
1 6 0 9 -225813 -262144 0;
#X obj 319 409 cnv 9 101 9 empty 37-3-editor-button 2. -1 1 6 0 9 -137321
-174763 0;
#X obj 424 409 cnv 9 101 9 empty 37-4-editor-button 2. -1 1 6 0 9 -137321
-174763 0;
#X obj 529 409 cnv 9 101 9 empty 37-5-editor-button 2. -1 1 6 0 9 -137321
-174763 0;
#X obj 4 420 cnv 9 101 9 empty 38-0-editor-button 3. -1 1 6 0 9 -137321
-174763 0;
#X obj 109 420 cnv 9 101 9 empty 38-1-editor-button 3. -1 1 6 0 9 -137321
-174763 0;
#X obj 214 420 cnv 9 101 9 empty 38-2-editor-button 13. -1 1 6 0 9
-174781 -262144 0;
#X obj 319 420 cnv 9 101 9 empty 38-3-editor-button 3. -1 1 6 0 9 -137321
-174763 0;
#X obj 424 420 cnv 9 101 9 empty 38-4-editor-button 3. -1 1 6 0 9 -137321
-174763 0;
#X obj 529 420 cnv 9 101 9 empty 38-5-editor-button 3. -1 1 6 0 9 -137321
-174763 0;
#X obj 4 431 cnv 9 101 9 empty 39-0-editor-button 4. -1 1 6 0 9 -137321
-174763 0;
#X obj 109 431 cnv 9 101 9 empty 39-1-editor-button 4. -1 1 6 0 9 -137321
-174763 0;
#X obj 214 431 cnv 9 101 9 empty 39-2-editor-button 1. -1 1 6 0 9 -137321
-174763 0;
#X obj 319 431 cnv 9 101 9 empty 39-3-editor-button 4. -1 1 6 0 9 -137321
-174763 0;
#X obj 424 431 cnv 9 101 9 empty 39-4-editor-button 4. -1 1 6 0 9 -137321
-174763 0;
#X obj 529 431 cnv 9 101 9 empty 39-5-editor-button 4. -1 1 6 0 9 -137321
-174763 0;
#X obj 4 442 cnv 9 101 9 empty 40-0-editor-button 1. -1 1 6 0 9 -137321
-174763 0;
#X obj 109 442 cnv 9 101 9 empty 40-1-editor-button 1. -1 1 6 0 9 -137321
-174763 0;
#X obj 214 442 cnv 9 101 9 empty 40-2-editor-button 2. -1 1 6 0 9 -174781
-262144 0;
#X obj 319 442 cnv 9 101 9 empty 40-3-editor-button 1. -1 1 6 0 9 -137321
-174763 0;
#X obj 424 442 cnv 9 101 9 empty 40-4-editor-button 1. -1 1 6 0 9 -137321
-174763 0;
#X obj 529 442 cnv 9 101 9 empty 40-5-editor-button 1. -1 1 6 0 9 -137321
-174763 0;
#X obj 4 453 cnv 9 101 9 empty 41-0-editor-button 2. -1 1 6 0 9 -137321
-174763 0;
#X obj 109 453 cnv 9 101 9 empty 41-1-editor-button 2. -1 1 6 0 9 -137321
-174763 0;
#X obj 214 453 cnv 9 101 9 empty 41-2-editor-button 3. 144 17 127 1
6 0 9 -225813 -262144 0;
#X obj 319 453 cnv 9 101 9 empty 41-3-editor-button 2. -1 1 6 0 9 -137321
-174763 0;
#X obj 424 453 cnv 9 101 9 empty 41-4-editor-button 2. -1 1 6 0 9 -137321
-174763 0;
#X obj 529 453 cnv 9 101 9 empty 41-5-editor-button 2. -1 1 6 0 9 -137321
-174763 0;
#X obj 4 464 cnv 9 101 9 empty 42-0-editor-button 3. -1 1 6 0 9 -137321
-174763 0;
#X obj 109 464 cnv 9 101 9 empty 42-1-editor-button 3. -1 1 6 0 9 -137321
-174763 0;
#X obj 214 464 cnv 9 101 9 empty 42-2-editor-button 4. 144 28 127 1
6 0 9 -225813 -262144 0;
#X obj 319 464 cnv 9 101 9 empty 42-3-editor-button 3. -1 1 6 0 9 -137321
-174763 0;
#X obj 424 464 cnv 9 101 9 empty 42-4-editor-button 3. -1 1 6 0 9 -137321
-174763 0;
#X obj 529 464 cnv 9 101 9 empty 42-5-editor-button 3. -1 1 6 0 9 -137321
-174763 0;
#X obj 4 475 cnv 9 101 9 empty 43-0-editor-button 4. -1 1 6 0 9 -137321
-174763 0;
#X obj 109 475 cnv 9 101 9 empty 43-1-editor-button 4. -1 1 6 0 9 -137321
-174763 0;
#X obj 214 475 cnv 9 101 9 empty 43-2-editor-button 5. 144 28 127 1
6 0 9 -225813 -262144 0;
#X obj 319 475 cnv 9 101 9 empty 43-3-editor-button 4. -1 1 6 0 9 -137321
-174763 0;
#X obj 424 475 cnv 9 101 9 empty 43-4-editor-button 4. -1 1 6 0 9 -137321
-174763 0;
#X obj 529 475 cnv 9 101 9 empty 43-5-editor-button 4. -1 1 6 0 9 -137321
-174763 0;
#X obj 4 486 cnv 9 101 9 empty 44-0-editor-button 1. -1 1 6 0 9 -137321
-174763 0;
#X obj 109 486 cnv 9 101 9 empty 44-1-editor-button 1. -1 1 6 0 9 -137321
-174763 0;
#X obj 214 486 cnv 9 101 9 empty 44-2-editor-button 6. 144 28 127 1
6 0 9 -225813 -262144 0;
#X obj 319 486 cnv 9 101 9 empty 44-3-editor-button 1. -1 1 6 0 9 -137321
-174763 0;
#X obj 424 486 cnv 9 101 9 empty 44-4-editor-button 1. -1 1 6 0 9 -137321
-174763 0;
#X obj 529 486 cnv 9 101 9 empty 44-5-editor-button 1. -1 1 6 0 9 -137321
-174763 0;
#X obj 4 497 cnv 9 101 9 empty 45-0-editor-button 2. -1 1 6 0 9 -137321
-174763 0;
#X obj 109 497 cnv 9 101 9 empty 45-1-editor-button 2. -1 1 6 0 9 -137321
-174763 0;
#X obj 214 497 cnv 9 101 9 empty 45-2-editor-button 7. 144 28 127 1
6 0 9 -225813 -262144 0;
#X obj 319 497 cnv 9 101 9 empty 45-3-editor-button 2. -1 1 6 0 9 -137321
-174763 0;
#X obj 424 497 cnv 9 101 9 empty 45-4-editor-button 2. -1 1 6 0 9 -137321
-174763 0;
#X obj 529 497 cnv 9 101 9 empty 45-5-editor-button 2. -1 1 6 0 9 -137321
-174763 0;
#X obj 634 2 cnv 11 126 11 empty phrases-editor-toggle-button OFF 1
6 0 11 -82488 -262144 0;
#X obj 634 15 cnv 11 126 11 empty phrases-editor-key-button Phrase 1
1 6 0 11 -90881 -262144 0;
#X obj 634 28 cnv 11 126 11 empty phrases-editor-item-button Item 11
1 6 0 11 -112354 -262144 0;
#X obj 634 41 cnv 11 126 11 empty phrases-editor-tick-button Tick 11
1 6 0 11 -174781 -262144 0;
#X obj 634 55 cnv 11 126 11 empty phrases-editor-mode-button Mode: Note
1 6 0 11 -95399 -174763 0;
#X obj 634 68 cnv 11 126 11 empty phrases-editor-channel-button Chan 0
1 6 0 11 -82488 -262144 0;
#X obj 634 81 cnv 11 126 11 empty phrases-editor-command-button Cmd: NOTE-ON
1 6 0 11 -225813 -262144 0;
#X obj 634 94 cnv 11 126 11 empty phrases-editor-velocity-button Velo 127
1 6 0 11 -82488 -262144 0;
#X obj 634 108 cnv 11 126 11 empty phrases-editor-octave-button Octave 1
1 6 0 11 -82488 -262144 0;
#X obj 634 121 cnv 11 126 11 empty phrases-editor-spacing-button Spacing 0
1 6 0 11 -82488 -262144 0;
#X restore 12 1089 pd phrases-editor-gui;
#N canvas 428 123 519 420 phrases-gui-sender 0;
#X msg 87 322 vis 1 \, clear;
#X obj 176 43 list trim;
#X obj 176 20 r phrases-editor-gui-object;
#X obj 11 20 r phrases-grid-gui-object;
#X obj 11 43 list trim;
#X obj 212 322 phrases-gui-generator;
#X text 10 2 Receive GUI objects sent by phrases-gui-generator;
#X obj 60 255 t b b;
#X text 90 307 Clear old GUI;
#X obj 242 126 r phrases-grid-pixelsx;
#X obj 253 145 r phrases-grid-pixelsy;
#X obj 283 202 r phrases-editor-cellsx;
#X obj 294 221 r phrases-editor-cellsy;
#X obj 304 240 r phrases-editor-pixelsx;
#X obj 314 259 r phrases-editor-pixelsy;
#X obj 263 164 r phrases-grid-marginx;
#X obj 273 183 r phrases-grid-marginy;
#X obj 324 278 r phrases-editor-marginx;
#X obj 335 297 r phrases-editor-marginy;
#X obj 222 88 r phrases-monome-x;
#X obj 232 107 r phrases-monome-y;
#X obj 60 232 r phrases-gui-bang;
#X obj 11 361 s pd-phrases-grid-gui;
#X obj 176 361 s pd-phrases-editor-gui;
#X connect 0 0 22 0;
#X connect 0 0 23 0;
#X connect 1 0 23 0;
#X connect 2 0 1 0;
#X connect 3 0 4 0;
#X connect 4 0 22 0;
#X connect 7 0 5 0;
#X connect 7 1 0 0;
#X connect 9 0 5 3;
#X connect 10 0 5 4;
#X connect 11 0 5 7;
#X connect 12 0 5 8;
#X connect 13 0 5 9;
#X connect 14 0 5 10;
#X connect 15 0 5 5;
#X connect 16 0 5 6;
#X connect 17 0 5 11;
#X connect 18 0 5 12;
#X connect 19 0 5 1;
#X connect 20 0 5 2;
#X connect 21 0 7 0;
#X restore 12 1070 pd phrases-gui-sender;
#N canvas 329 0 675 558 phrases-grid-gui 1;
#X obj 3 3 cnv 64 64 64 empty 0-0-grid-button empty 1 6 0 64 -233017
-262144 0;
#X obj 70 3 cnv 64 64 64 empty 0-1-grid-button empty 1 6 0 64 -233017
-262144 0;
#X obj 137 3 cnv 64 64 64 empty 0-2-grid-button empty 1 6 0 64 -233017
-262144 0;
#X obj 204 3 cnv 64 64 64 empty 0-3-grid-button empty 1 6 0 64 -233017
-262144 0;
#X obj 271 3 cnv 64 64 64 empty 0-4-grid-button empty 1 6 0 64 -233017
-262144 0;
#X obj 338 3 cnv 64 64 64 empty 0-5-grid-button empty 1 6 0 64 -233017
-262144 0;
#X obj 405 3 cnv 64 64 64 empty 0-6-grid-button empty 1 6 0 64 -233017
-262144 0;
#X obj 472 3 cnv 64 64 64 empty 0-7-grid-button empty 1 6 0 64 -233017
-262144 0;
#X obj 3 70 cnv 64 64 64 empty 1-0-grid-button empty 1 6 0 64 -233017
-262144 0;
#X obj 70 70 cnv 64 64 64 empty 1-1-grid-button empty 1 6 0 64 -233017
-262144 0;
#X obj 137 70 cnv 64 64 64 empty 1-2-grid-button empty 1 6 0 64 -233017
-262144 0;
#X obj 204 70 cnv 64 64 64 empty 1-3-grid-button empty 1 6 0 64 -233017
-262144 0;
#X obj 271 70 cnv 64 64 64 empty 1-4-grid-button empty 1 6 0 64 -233017
-262144 0;
#X obj 338 70 cnv 64 64 64 empty 1-5-grid-button empty 1 6 0 64 -233017
-262144 0;
#X obj 405 70 cnv 64 64 64 empty 1-6-grid-button empty 1 6 0 64 -233017
-262144 0;
#X obj 472 70 cnv 64 64 64 empty 1-7-grid-button empty 1 6 0 64 -233017
-262144 0;
#X obj 3 137 cnv 64 64 64 empty 2-0-grid-button empty 1 6 0 64 -233017
-262144 0;
#X obj 70 137 cnv 64 64 64 empty 2-1-grid-button empty 1 6 0 64 -233017
-262144 0;
#X obj 137 137 cnv 64 64 64 empty 2-2-grid-button empty 1 6 0 64 -233017
-262144 0;
#X obj 204 137 cnv 64 64 64 empty 2-3-grid-button empty 1 6 0 64 -233017
-262144 0;
#X obj 271 137 cnv 64 64 64 empty 2-4-grid-button empty 1 6 0 64 -233017
-262144 0;
#X obj 338 137 cnv 64 64 64 empty 2-5-grid-button empty 1 6 0 64 -233017
-262144 0;
#X obj 405 137 cnv 64 64 64 empty 2-6-grid-button empty 1 6 0 64 -233017
-262144 0;
#X obj 472 137 cnv 64 64 64 empty 2-7-grid-button empty 1 6 0 64 -233017
-262144 0;
#X obj 3 204 cnv 64 64 64 empty 3-0-grid-button empty 1 6 0 64 -233017
-262144 0;
#X obj 70 204 cnv 64 64 64 empty 3-1-grid-button empty 1 6 0 64 -233017
-262144 0;
#X obj 137 204 cnv 64 64 64 empty 3-2-grid-button empty 1 6 0 64 -233017
-262144 0;
#X obj 204 204 cnv 64 64 64 empty 3-3-grid-button empty 1 6 0 64 -233017
-262144 0;
#X obj 271 204 cnv 64 64 64 empty 3-4-grid-button empty 1 6 0 64 -233017
-262144 0;
#X obj 338 204 cnv 64 64 64 empty 3-5-grid-button empty 1 6 0 64 -233017
-262144 0;
#X obj 405 204 cnv 64 64 64 empty 3-6-grid-button empty 1 6 0 64 -233017
-262144 0;
#X obj 472 204 cnv 64 64 64 empty 3-7-grid-button empty 1 6 0 64 -233017
-262144 0;
#X obj 3 271 cnv 64 64 64 empty 4-0-grid-button empty 1 6 0 64 -233017
-262144 0;
#X obj 70 271 cnv 64 64 64 empty 4-1-grid-button empty 1 6 0 64 -233017
-262144 0;
#X obj 137 271 cnv 64 64 64 empty 4-2-grid-button empty 1 6 0 64 -233017
-262144 0;
#X obj 204 271 cnv 64 64 64 empty 4-3-grid-button empty 1 6 0 64 -233017
-262144 0;
#X obj 271 271 cnv 64 64 64 empty 4-4-grid-button empty 1 6 0 64 -233017
-262144 0;
#X obj 338 271 cnv 64 64 64 empty 4-5-grid-button empty 1 6 0 64 -233017
-262144 0;
#X obj 405 271 cnv 64 64 64 empty 4-6-grid-button empty 1 6 0 64 -233017
-262144 0;
#X obj 472 271 cnv 64 64 64 empty 4-7-grid-button empty 1 6 0 64 -233017
-262144 0;
#X obj 3 338 cnv 64 64 64 empty 5-0-grid-button empty 1 6 0 64 -233017
-262144 0;
#X obj 70 338 cnv 64 64 64 empty 5-1-grid-button empty 1 6 0 64 -233017
-262144 0;
#X obj 137 338 cnv 64 64 64 empty 5-2-grid-button empty 1 6 0 64 -233017
-262144 0;
#X obj 204 338 cnv 64 64 64 empty 5-3-grid-button empty 1 6 0 64 -233017
-262144 0;
#X obj 271 338 cnv 64 64 64 empty 5-4-grid-button empty 1 6 0 64 -233017
-262144 0;
#X obj 338 338 cnv 64 64 64 empty 5-5-grid-button empty 1 6 0 64 -233017
-262144 0;
#X obj 405 338 cnv 64 64 64 empty 5-6-grid-button empty 1 6 0 64 -233017
-262144 0;
#X obj 472 338 cnv 64 64 64 empty 5-7-grid-button empty 1 6 0 64 -233017
-262144 0;
#X obj 3 405 cnv 64 64 64 empty 6-0-grid-button empty 1 6 0 64 -233017
-262144 0;
#X obj 70 405 cnv 64 64 64 empty 6-1-grid-button empty 1 6 0 64 -233017
-262144 0;
#X obj 137 405 cnv 64 64 64 empty 6-2-grid-button empty 1 6 0 64 -233017
-262144 0;
#X obj 204 405 cnv 64 64 64 empty 6-3-grid-button empty 1 6 0 64 -233017
-262144 0;
#X obj 271 405 cnv 64 64 64 empty 6-4-grid-button empty 1 6 0 64 -233017
-262144 0;
#X obj 338 405 cnv 64 64 64 empty 6-5-grid-button empty 1 6 0 64 -233017
-262144 0;
#X obj 405 405 cnv 64 64 64 empty 6-6-grid-button empty 1 6 0 64 -233017
-262144 0;
#X obj 472 405 cnv 64 64 64 empty 6-7-grid-button empty 1 6 0 64 -233017
-262144 0;
#X obj 3 472 cnv 64 64 64 empty 7-0-grid-button empty 1 6 0 64 -233017
-262144 0;
#X obj 70 472 cnv 64 64 64 empty 7-1-grid-button empty 1 6 0 64 -233017
-262144 0;
#X obj 137 472 cnv 64 64 64 empty 7-2-grid-button empty 1 6 0 64 -233017
-262144 0;
#X obj 204 472 cnv 64 64 64 empty 7-3-grid-button empty 1 6 0 64 -233017
-262144 0;
#X obj 271 472 cnv 64 64 64 empty 7-4-grid-button empty 1 6 0 64 -233017
-262144 0;
#X obj 338 472 cnv 64 64 64 empty 7-5-grid-button empty 1 6 0 64 -233017
-262144 0;
#X obj 405 472 cnv 64 64 64 empty 7-6-grid-button empty 1 6 0 64 -233017
-262144 0;
#X obj 472 472 cnv 64 64 64 empty 7-7-grid-button empty 1 6 0 64 -233017
-262144 0;
#X obj 539 3 cnv 96 96 96 empty phrases-grid-gate-button empty 1 6
0 96 -262144 -262144 0;
#X restore 12 1108 pd phrases-grid-gui;
#N canvas 315 238 671 277 phrases-prefs 0;
#X msg 116 75 8;
#X msg 144 75 8;
#X text 119 58 X --- Y;
#X text 21 68 Monome size \; grid GUI cells;
#X obj 252 60 bng 15 250 50 0 empty empty empty 17 7 0 10 -262144 -1
-1;
#X obj 272 140 bng 15 250 50 0 empty empty empty 17 7 0 10 -262144
-1 -1;
#X obj 272 12 r phrases-prefs-bang;
#X obj 116 96 s phrases-monome-x;
#X obj 116 117 s phrases-monome-y;
#X obj 463 12 r phrases-monome-x;
#X obj 471 35 r phrases-monome-y;
#X obj 463 122 *;
#X text 118 138 BPM --- TPB --- GATE;
#X msg 116 155 120;
#X msg 216 155 16;
#X obj 116 176 s phrases-bpm;
#X obj 116 197 s phrases-tpb;
#X obj 116 218 s phrases-gate;
#X msg 166 155 4;
#X obj 471 60 t b f;
#X obj 463 85 i 1;
#X obj 498 85 i 1;
#X obj 463 147 s phrases-totalbuttons;
#X obj 418 1 bng 15 250 50 0 empty empty empty 17 7 0 10 -262144 -1
-1;
#X obj 418 252 bng 15 250 50 0 empty empty empty 17 7 0 10 -262144
-1 -1;
#X text -25 153 Default tempo/gating / \; \; note: these change / \;
if a song sets them;
#X connect 0 0 7 0;
#X connect 1 0 8 0;
#X connect 4 0 1 0;
#X connect 4 0 0 0;
#X connect 5 0 13 0;
#X connect 5 0 18 0;
#X connect 5 0 14 0;
#X connect 6 0 4 0;
#X connect 6 0 5 0;
#X connect 9 0 20 0;
#X connect 10 0 19 0;
#X connect 11 0 22 0;
#X connect 13 0 15 0;
#X connect 14 0 17 0;
#X connect 18 0 16 0;
#X connect 19 0 20 0;
#X connect 19 1 21 0;
#X connect 20 0 11 0;
#X connect 21 0 11 1;
#X connect 23 0 24 0;
#X restore 12 1013 pd phrases-prefs;
#N canvas 65 2 922 512 phrases-gui-prefs 1;
#X obj 295 12 r phrases-gui-prefs-bang;
#X text 139 35 X --- Y;
#X text 136 115 X --- Y;
#X text 142 195 X --- Y;
#X text 143 275 X --- Y;
#X text 138 355 X --- Y;
#X text 43 51 grid GUI size;
#X text 25 131 grid GUI margins;
#X text 31 291 editor GUI size;
#X text 25 211 editor GUI cells;
#X text 13 371 editor GUI margins;
#X obj 295 117 bng 15 250 50 0 empty empty empty 17 7 0 10 -262144
-1 -1;
#X obj 295 197 bng 15 250 50 0 empty empty empty 17 7 0 10 -262144
-1 -1;
#X obj 295 277 bng 15 250 50 0 empty empty empty 17 7 0 10 -262144
-1 -1;
#X obj 295 357 bng 15 250 50 0 empty empty empty 17 7 0 10 -262144
-1 -1;
#X obj 134 73 s phrases-grid-pixelsx;
#X obj 134 94 s phrases-grid-pixelsy;
#X obj 134 153 s phrases-grid-marginx;
#X obj 134 174 s phrases-grid-marginy;
#X obj 134 233 s phrases-editor-cellsx;
#X obj 134 254 s phrases-editor-cellsy;
#X obj 134 313 s phrases-editor-pixelsx;
#X obj 134 334 s phrases-editor-pixelsy;
#X obj 134 393 s phrases-editor-marginx;
#X obj 134 414 s phrases-editor-marginy;
#X msg 134 132 3;
#X msg 162 132 3;
#X msg 134 52 540;
#X msg 168 52 540;
#X obj 295 37 bng 15 250 50 0 empty empty empty 17 7 0 10 -262144 -1
-1;
#X text 461 57 R -- G -- B;
#X text 571 57 R -- G -- B;
#X msg 484 73 10;
#X msg 566 73 10;
#X msg 594 73 20;
#X msg 512 73 20;
#X msg 622 73 230;
#X obj 456 104 s phrases-grid-red1;
#X obj 484 125 s phrases-grid-green1;
#X obj 589 104 s phrases-grid-red2;
#X obj 617 125 s phrases-grid-green2;
#X obj 512 146 s phrases-grid-blue1;
#X obj 645 146 s phrases-grid-blue2;
#X text 461 239 R -- G -- B;
#X text 571 239 R -- G -- B;
#X obj 456 286 s phrases-editor-red1;
#X obj 484 307 s phrases-editor-green1;
#X obj 512 328 s phrases-editor-blue1;
#X obj 521 349 s phrases-editor-red2;
#X obj 549 370 s phrases-editor-green2;
#X obj 577 391 s phrases-editor-blue2;
#X obj 646 286 s phrases-editor-red3;
#X obj 674 307 s phrases-editor-green3;
#X obj 702 328 s phrases-editor-blue3;
#X text 681 239 R -- G -- B;
#X text 681 57 R -- G -- B;
#X obj 676 167 s phrases-grid-red3;
#X obj 704 188 s phrases-grid-green3;
#X obj 732 209 s phrases-grid-blue3;
#X msg 676 73 200;
#X msg 704 73 200;
#X msg 732 73 200;
#X text 340 73 grid button colors \; 0-255;
#X msg 456 73 230;
#X msg 456 255 220;
#X msg 622 255 220;
#X text 791 239 R -- G -- B;
#X msg 786 255 255;
#X msg 814 255 255;
#X msg 842 255 255;
#X text 370 255 editor colors \; 0-255;
#X obj 716 349 s phrases-editor-red4;
#X obj 744 370 s phrases-editor-green4;
#X obj 772 391 s phrases-editor-blue4;
#X msg 512 255 80;
#X msg 566 255 80;
#X msg 484 255 35;
#X msg 594 255 35;
#X msg 164 372 2;
#X msg 134 372 4;
#X msg 676 255 170;
#X msg 704 255 170;
#X msg 732 255 240;
#X msg 134 212 6;
#X obj 295 58 bng 15 250 50 0 empty empty empty 17 7 0 10 -262144 -1
-1;
#X obj 295 240 bng 15 250 50 0 empty empty empty 17 7 0 10 -262144
-1 -1;
#X msg 134 292 630;
#X msg 175 292 550;
#X msg 175 212 46;
#X connect 0 0 29 0;
#X connect 11 0 25 0;
#X connect 11 0 26 0;
#X connect 11 0 12 0;
#X connect 12 0 83 0;
#X connect 12 0 88 0;
#X connect 12 0 85 0;
#X connect 13 0 86 0;
#X connect 13 0 87 0;
#X connect 13 0 14 0;
#X connect 14 0 79 0;
#X connect 14 0 78 0;
#X connect 25 0 17 0;
#X connect 26 0 18 0;
#X connect 27 0 15 0;
#X connect 28 0 16 0;
#X connect 29 0 28 0;
#X connect 29 0 27 0;
#X connect 29 0 84 0;
#X connect 32 0 38 0;
#X connect 33 0 39 0;
#X connect 34 0 40 0;
#X connect 35 0 41 0;
#X connect 36 0 42 0;
#X connect 59 0 56 0;
#X connect 60 0 57 0;
#X connect 61 0 58 0;
#X connect 63 0 37 0;
#X connect 64 0 45 0;
#X connect 65 0 50 0;
#X connect 67 0 71 0;
#X connect 68 0 72 0;
#X connect 69 0 73 0;
#X connect 74 0 47 0;
#X connect 75 0 48 0;
#X connect 76 0 46 0;
#X connect 77 0 49 0;
#X connect 78 0 24 0;
#X connect 79 0 23 0;
#X connect 80 0 51 0;
#X connect 81 0 52 0;
#X connect 82 0 53 0;
#X connect 83 0 19 0;
#X connect 84 0 63 0;
#X connect 84 0 32 0;
#X connect 84 0 35 0;
#X connect 84 0 33 0;
#X connect 84 0 34 0;
#X connect 84 0 36 0;
#X connect 84 0 59 0;
#X connect 84 0 60 0;
#X connect 84 0 61 0;
#X connect 84 0 11 0;
#X connect 85 0 64 0;
#X connect 85 0 76 0;
#X connect 85 0 74 0;
#X connect 85 0 75 0;
#X connect 85 0 77 0;
#X connect 85 0 65 0;
#X connect 85 0 80 0;
#X connect 85 0 81 0;
#X connect 85 0 82 0;
#X connect 85 0 67 0;
#X connect 85 0 68 0;
#X connect 85 0 69 0;
#X connect 85 0 13 0;
#X connect 86 0 21 0;
#X connect 87 0 22 0;
#X connect 88 0 20 0;
#X restore 12 1032 pd phrases-gui-prefs;
#N canvas 328 89 406 362 phrases-bang-order 0;
#X obj 64 24 loadbang;
#X obj 111 127 s phrases-prefs-bang;
#X obj 95 148 s phrases-gui-prefs-bang;
#X obj 79 169 s phrases-gui-bang;
#X obj 127 24 r phrases-newfile-bang;
#X obj 64 83 t b b b b b;
#X obj 127 106 s phrases-metro-stop-bang;
#X obj 64 190 s phrases-metro-start-bang;
#X msg 22 24 bang;
#X connect 0 0 5 0;
#X connect 4 0 5 0;
#X connect 5 0 7 0;
#X connect 5 1 3 0;
#X connect 5 2 2 0;
#X connect 5 3 1 0;
#X connect 5 4 6 0;
#X connect 8 0 5 0;
#X restore 12 1051 pd phrases-bang-order;
#N canvas 58 0 518 531 phrases-tempo-generator 0;
#X obj 56 254 metro;
#X obj 83 136 /;
#X obj 142 109 *;
#X obj 56 278 bng 15 50 10 0 empty empty empty 0 -6 0 8 -258113 -228856
-1;
#X msg 83 109 60000;
#X floatatom 83 166 7 0 0 1 - - -;
#X obj 110 406 bng 15 200 50 0 empty empty empty 17 7 0 10 -4160 -257985
-257985;
#X obj 96 302 + 1;
#X obj 83 352 moses;
#X obj 110 379 t b b;
#X text 129 165 ms between tempo ticks;
#X floatatom 56 379 5 0 0 0 - - -;
#X obj 56 352 mod;
#X obj 83 77 t b f;
#X obj 123 77 t b b f;
#X obj 56 302 i 1;
#X obj 56 325 t f f;
#X obj 56 404 t b f;
#X text 55 487 Send tempo ticks only after updating ticknum;
#X obj 110 430 s phrases-gatebang;
#X obj 56 472 s phrases-tempobang;
#X obj 83 451 s phrases-ticknum;
#X obj 83 25 r phrases-bpm;
#X obj 123 53 r phrases-tpb;
#X obj 110 325 r phrases-gate;
#X obj 16 199 bng 15 250 50 0 empty phrases-metro-start-bang empty
17 7 0 10 -262144 -1 -1;
#X obj 106 199 bng 15 250 50 0 empty phrases-metro-stop-bang empty
17 7 0 10 -262144 -1 -1;
#X msg 56 227 stop;
#X text 32 197 r start;
#X text 122 197 r stop;
#X text 218 269 1-indexing is necessary here;
#X text 29 3 Generate properly spaced tempo ticks;
#X text 159 355 Launch bangs on gate ticks. / \; NOTE: Gatebangs are
sent before ticknum and tempobang \, / \; in order to allow timely
updates of activity on / \; tick 0 \, and transference whenever.;
#X msg 192 270 1;
#X msg 106 270 0;
#X connect 0 0 3 0;
#X connect 1 0 5 0;
#X connect 2 0 1 1;
#X connect 3 0 15 0;
#X connect 4 0 1 0;
#X connect 5 0 0 1;
#X connect 6 0 19 0;
#X connect 7 0 15 1;
#X connect 8 1 9 0;
#X connect 9 0 6 0;
#X connect 9 1 33 0;
#X connect 11 0 17 0;
#X connect 12 0 11 0;
#X connect 13 0 4 0;
#X connect 13 1 2 0;
#X connect 14 0 4 0;
#X connect 14 1 2 0;
#X connect 14 2 2 1;
#X connect 15 0 7 0;
#X connect 15 0 16 0;
#X connect 16 0 12 0;
#X connect 16 1 8 0;
#X connect 17 0 20 0;
#X connect 17 1 21 0;
#X connect 22 0 13 0;
#X connect 23 0 14 0;
#X connect 24 0 8 1;
#X connect 24 0 12 1;
#X connect 25 0 0 0;
#X connect 26 0 27 0;
#X connect 26 0 34 0;
#X connect 27 0 0 0;
#X connect 33 0 15 1;
#X connect 34 0 15 1;
#X restore 12 967 pd phrases-tempo-generator;
#N canvas 90 2 913 547 phrases-button-colorizer 0;
#X obj 27 294 s phrases-grid-gate-button;
#X obj 150 126 r phrases-gate-green1;
#X obj 187 147 r phrases-gate-green2;
#X obj 79 23 r phrases-gate;
#X obj 27 46 r phrases-ticknum;
#X obj 200 56 r phrases-gate-blue1;
#X obj 237 77 r phrases-gate-blue2;
#X obj 101 196 r phrases-gate-red1;
#X obj 138 217 r phrases-gate-red2;
#X obj 79 69 t f f f;
#X obj 27 69 t f f f;
#X obj 126 100 phrases-weighcolors;
#X obj 76 170 phrases-weighcolors;
#X obj 27 240 phrases-weighcolors;
#X obj 389 13 r phrases-grid-red1;
#X obj 417 32 r phrases-grid-green1;
#X obj 446 51 r phrases-grid-blue1;
#X obj 389 95 s phrases-grid-color1;
#X obj 589 13 r phrases-grid-red2;
#X obj 617 32 r phrases-grid-green2;
#X obj 646 51 r phrases-grid-blue2;
#X obj 589 95 s phrases-grid-color2;
#X obj 389 123 r phrases-grid-red3;
#X obj 417 142 r phrases-grid-green3;
#X obj 446 161 r phrases-grid-blue3;
#X obj 389 233 r phrases-editor-red1;
#X obj 417 252 r phrases-editor-green1;
#X obj 446 271 r phrases-editor-blue1;
#X obj 389 205 s phrases-grid-color3;
#X obj 389 315 s phrases-editor-color1;
#X obj 599 233 r phrases-editor-red2;
#X obj 627 252 r phrases-editor-green2;
#X obj 656 271 r phrases-editor-blue2;
#X obj 599 315 s phrases-editor-color2;
#X obj 389 343 r phrases-editor-red3;
#X obj 417 362 r phrases-editor-green3;
#X obj 446 381 r phrases-editor-blue3;
#X obj 389 425 s phrases-editor-color3;
#X obj 27 267 phrases-makecolor;
#X obj 599 343 r phrases-editor-red4;
#X obj 627 362 r phrases-editor-green4;
#X obj 656 381 r phrases-editor-blue4;
#X obj 599 425 s phrases-editor-color4;
#X obj 389 73 phrases-makecolor;
#X obj 589 73 phrases-makecolor;
#X obj 389 183 phrases-makecolor;
#X obj 389 293 phrases-makecolor;
#X obj 599 293 phrases-makecolor;
#X obj 389 403 phrases-makecolor;
#X obj 599 403 phrases-makecolor;
#X connect 1 0 12 2;
#X connect 2 0 12 3;
#X connect 3 0 9 0;
#X connect 4 0 10 0;
#X connect 5 0 11 2;
#X connect 6 0 11 3;
#X connect 7 0 13 2;
#X connect 8 0 13 3;
#X connect 9 0 13 1;
#X connect 9 1 12 1;
#X connect 9 2 11 1;
#X connect 10 0 13 0;
#X connect 10 1 12 0;
#X connect 10 2 11 0;
#X connect 11 0 38 2;
#X connect 12 0 38 1;
#X connect 13 0 38 0;
#X connect 14 0 43 0;
#X connect 15 0 43 1;
#X connect 16 0 43 2;
#X connect 18 0 44 0;
#X connect 19 0 44 1;
#X connect 20 0 44 2;
#X connect 22 0 45 0;
#X connect 23 0 45 1;
#X connect 24 0 45 2;
#X connect 25 0 46 0;
#X connect 26 0 46 1;
#X connect 27 0 46 2;
#X connect 30 0 47 0;
#X connect 31 0 47 1;
#X connect 32 0 47 2;
#X connect 34 0 48 0;
#X connect 35 0 48 1;
#X connect 36 0 48 2;
#X connect 38 0 0 0;
#X connect 39 0 49 0;
#X connect 40 0 49 1;
#X connect 41 0 49 2;
#X connect 43 0 17 0;
#X connect 44 0 21 0;
#X connect 45 0 28 0;
#X connect 46 0 29 0;
#X connect 47 0 33 0;
#X connect 48 0 37 0;
#X connect 49 0 42 0;
#X restore 12 1127 pd phrases-button-colorizer;
#N canvas 340 2 486 552 phrases-editor-wrapper 1;
#X obj 19 9 r phrases-editor-commands;
#X obj 19 506 s phrases-midi-out;
#X obj 32 28 r phrases-midi-in;
#X obj 179 237 r phrases-editor-color1;
#X obj 193 256 r phrases-editor-color2;
#X obj 206 275 r phrases-editor-color3;
#X obj 220 294 r phrases-editor-color4;
#X obj 45 47 r phrases-key;
#X obj 19 386 t l l;
#X obj 46 410 delay 100;
#X obj 46 434 unpack f f f;
#X obj 46 458 - 16;
#X obj 46 482 pack f f f;
#X obj 19 359 phrases-editor - - - - - - - - - -;
#X obj 86 104 r phrases-bpm;
#X obj 99 123 r phrases-tpb;
#X obj 112 142 r phrases-gate;
#X obj 72 85 r phrases-save-filename;
#X obj 59 66 r phrases-load-filename;
#X obj 126 161 r phrases-monome-x;
#X obj 139 180 r phrases-monome-y;
#X obj 153 199 r phrases-editor-cellsx;
#X obj 166 218 r phrases-editor-cellsy;
#X connect 0 0 13 0;
#X connect 2 0 13 1;
#X connect 3 0 13 12;
#X connect 4 0 13 13;
#X connect 5 0 13 14;
#X connect 6 0 13 15;
#X connect 7 0 13 2;
#X connect 8 0 1 0;
#X connect 8 1 9 0;
#X connect 9 0 10 0;
#X connect 10 0 11 0;
#X connect 10 1 12 1;
#X connect 10 2 12 2;
#X connect 11 0 12 0;
#X connect 12 0 1 0;
#X connect 13 0 8 0;
#X connect 14 0 13 5;
#X connect 15 0 13 6;
#X connect 16 0 13 7;
#X connect 17 0 13 4;
#X connect 18 0 13 3;
#X connect 19 0 13 8;
#X connect 20 0 13 9;
#X connect 21 0 13 10;
#X connect 22 0 13 11;
#X restore 14 894 pd phrases-editor-wrapper;
#N canvas 264 0 737 556 phrases-keystroke-parser 0;
#X obj 123 16 keyname;
#X floatatom 110 42 5 0 0 0 - - -;
#X obj 162 175 bng 15 250 50 0 empty empty empty 17 7 0 10 -262144
-1 -1;
#X obj 309 221 spigot;
#X obj 198 175 bng 15 250 50 0 empty empty empty 17 7 0 10 -262144
-1 -1;
#X obj 309 198 bng 15 250 50 0 empty empty empty 17 7 0 10 -262144
-1 -1;
#X obj 309 246 bng 15 250 50 0 empty empty empty 17 7 0 10 -262144
-1 -1;
#X obj 309 269 i 0;
#X obj 337 269 + 1;
#X obj 365 269 mod 2;
#X floatatom 309 294 5 0 0 0 - - -;
#X floatatom 342 42 5 0 0 0 - - -;
#X msg 309 453 symbol PHRASES-IGNORE;
#X obj 309 175 route Escape;
#X msg 110 175 1;
#X msg 65 175 0;
#X obj 162 244 spigot;
#X obj 217 244 spigot;
#X obj 76 290 bng 15 250 50 0 empty empty empty 17 7 0 10 -262144 -1
-1;
#X obj 96 290 bng 15 250 50 0 empty empty empty 17 7 0 10 -262144 -1
-1;
#X obj 65 16 keyup;
#X obj 65 42 bng 15 250 50 0 empty empty empty 17 7 0 10 -262144 -1
-1;
#X obj 110 66 route 1;
#X msg 250 175 0;
#X msg 334 429 symbol PHRASES-RECORD;
#X obj 162 151 route ? | Shift_L Shift_R;
#X obj 76 318 phrases-keychord;
#X obj 76 341 bng 15 250 50 0 empty empty empty 17 7 0 10 -262144 -1
-1;
#X msg 76 362 symbol PHRASES-SAVE;
#X symbolatom 162 42 10 0 0 0 - - -;
#X obj 162 126 list trim;
#X obj 162 66 t s s b;
#X msg 459 200 0;
#X obj 409 234 spigot;
#X msg 425 200 1;
#X obj 409 148 t s;
#X symbolatom 409 258 10 0 0 0 - - -;
#X obj 116 290 bng 15 250 50 0 empty empty empty 17 7 0 10 -262144
-1 -1;
#X obj 474 258 bng 15 250 50 0 empty empty empty 17 7 0 10 -262144
-1 -1;
#X obj 475 294 spigot;
#X msg 508 134 1;
#X msg 478 144 0;
#X obj 492 318 bng 15 250 50 0 empty empty empty 17 7 0 10 -262144
-1 -1;
#X obj 516 484 s phrases-metro-stop-bang;
#X obj 501 504 s phrases-metro-start-bang;
#X obj 334 504 s phrases-editor-commands;
#X obj 309 368 route 1 0;
#X connect 0 0 1 0;
#X connect 0 0 11 0;
#X connect 0 1 29 0;
#X connect 1 0 22 0;
#X connect 2 0 16 0;
#X connect 3 0 6 0;
#X connect 4 0 17 0;
#X connect 5 0 3 0;
#X connect 6 0 7 0;
#X connect 7 0 8 0;
#X connect 7 0 10 0;
#X connect 8 0 9 0;
#X connect 9 0 7 1;
#X connect 10 0 46 0;
#X connect 11 0 3 1;
#X connect 12 0 45 0;
#X connect 13 0 5 0;
#X connect 13 1 34 0;
#X connect 14 0 16 1;
#X connect 14 0 17 1;
#X connect 15 0 16 1;
#X connect 15 0 17 1;
#X connect 15 0 37 0;
#X connect 16 0 18 0;
#X connect 17 0 19 0;
#X connect 18 0 26 0;
#X connect 19 0 26 1;
#X connect 20 0 21 0;
#X connect 21 0 15 0;
#X connect 22 0 14 0;
#X connect 22 0 41 0;
#X connect 22 1 40 0;
#X connect 23 0 16 1;
#X connect 23 0 17 1;
#X connect 24 0 45 0;
#X connect 25 0 2 0;
#X connect 25 1 4 0;
#X connect 25 2 23 0;
#X connect 25 3 23 0;
#X connect 25 4 13 0;
#X connect 26 0 27 0;
#X connect 27 0 28 0;
#X connect 28 0 45 0;
#X connect 29 0 31 0;
#X connect 30 0 25 0;
#X connect 31 0 35 0;
#X connect 31 1 30 0;
#X connect 31 2 32 0;
#X connect 32 0 33 1;
#X connect 33 0 36 0;
#X connect 33 0 38 0;
#X connect 34 0 33 1;
#X connect 35 0 33 0;
#X connect 36 0 39 0;
#X connect 37 0 26 2;
#X connect 39 0 42 0;
#X connect 39 0 45 0;
#X connect 40 0 39 1;
#X connect 41 0 39 1;
#X connect 46 0 12 0;
#X connect 46 0 44 0;
#X connect 46 1 24 0;
#X connect 46 1 43 0;
#X restore 16 857 pd phrases-keystroke-parser;
#X msg 16 21 test.txt;
#X msg 16 81 test.txt;
#X msg 16 41 test2.txt;
#X msg 16 61 test3.txt;
#X obj 258 371 bng 50 250 50 0 phrases-loadpanel-bang empty empty 17
7 0 10 -99865 -191407 -1;
#X msg 16 101 test.txt;
#X msg 16 161 test.txt;
#X msg 16 121 test2.txt;
#X msg 16 141 test3.txt;
#X msg 16 181 test.txt;
#X msg 16 241 test.txt;
#X msg 16 201 test2.txt;
#X msg 16 221 test3.txt;
#X msg 16 261 test.txt;
#X msg 16 321 test.txt;
#X msg 16 281 test2.txt;
#X msg 16 301 test3.txt;
#X msg 206 21 test.txt;
#X msg 206 81 test.txt;
#X msg 206 41 test2.txt;
#X msg 206 61 test3.txt;
#X msg 206 101 test.txt;
#X msg 206 161 test.txt;
#X msg 206 121 test2.txt;
#X msg 206 141 test3.txt;
#X msg 206 181 test.txt;
#X msg 206 241 test.txt;
#X msg 206 201 test2.txt;
#X msg 206 221 test3.txt;
#X msg 206 261 test.txt;
#X msg 206 321 test.txt;
#X msg 206 281 test2.txt;
#X msg 206 301 test3.txt;
#X obj -8 101 t s;
#X obj -8 181 t s;
#X obj -8 261 t s;
#X obj 182 101 t s;
#X obj 182 181 t s;
#X obj 182 261 t s;
#X obj 182 341 t s;
#X obj -8 363 s phrases-load-filename-in;
#N canvas 513 153 428 368 phrases-filename-organizer 0;
#X obj -96 56 openpanel;
#X obj -106 10 r phrases-load-filename-in;
#X obj -106 83 t b s;
#X msg -106 134 symbol PHRASES-LOAD;
#X obj -106 158 s phrases-editor-commands;
#X obj -96 33 r phrases-loadpanel-bang;
#X obj 98 33 r phrases-savepanel-bang;
#X obj 98 57 savepanel;
#X obj 89 83 t b s;
#X obj 116 107 s phrases-save-filename;
#X obj -79 107 s phrases-load-filename;
#X obj 89 158 s phrases-editor-commands;
#X msg 89 134 symbol PHRASES-SAVE;
#X obj 89 10 r phrases-save-filename-in;
#X connect 0 0 2 0;
#X connect 1 0 2 0;
#X connect 2 0 3 0;
#X connect 2 1 10 0;
#X connect 3 0 4 0;
#X connect 5 0 0 0;
#X connect 6 0 7 0;
#X connect 7 0 8 0;
#X connect 8 0 12 0;
#X connect 8 1 9 0;
#X connect 12 0 11 0;
#X connect 13 0 8 0;
#X restore 12 928 pd phrases-filename-organizer;
#X obj 258 491 bng 50 250 50 0 phrases-savepanel-bang empty empty 17
7 0 10 -191407 -99865 -99865;
#X text 178 474 Save sequences to file;
#X text 90 3 Loadfile hotseats;
#X text 171 420 Load file from explorer;
#X msg 16 411 test.txt;
#X msg 16 471 test.txt;
#X msg 16 431 test2.txt;
#X msg 16 451 test3.txt;
#X msg 16 491 test.txt;
#X msg 16 551 test.txt;
#X msg 16 511 test2.txt;
#X msg 16 531 test3.txt;
#X msg 16 571 test.txt;
#X msg 16 631 test.txt;
#X msg 16 591 test2.txt;
#X msg 16 611 test3.txt;
#X msg 16 651 test.txt;
#X msg 16 711 test.txt;
#X msg 16 671 test2.txt;
#X msg 16 691 test3.txt;
#X obj -8 491 t s;
#X obj -8 571 t s;
#X obj -8 651 t s;
#X obj -8 733 s phrases-save-filename-in;
#X text -9 393 Savefile hotseats;
#N canvas 197 42 572 448 phrases-osc 1;
#X restore 16 805 pd phrases-osc;
#X connect 10 0 43 0;
#X connect 11 0 43 0;
#X connect 12 0 43 0;
#X connect 13 0 43 0;
#X connect 15 0 44 0;
#X connect 16 0 44 0;
#X connect 17 0 44 0;
#X connect 18 0 44 0;
#X connect 19 0 45 0;
#X connect 20 0 45 0;
#X connect 21 0 45 0;
#X connect 22 0 45 0;
#X connect 23 0 50 0;
#X connect 24 0 50 0;
#X connect 25 0 50 0;
#X connect 26 0 50 0;
#X connect 27 0 46 0;
#X connect 28 0 46 0;
#X connect 29 0 46 0;
#X connect 30 0 46 0;
#X connect 31 0 47 0;
#X connect 32 0 47 0;
#X connect 33 0 47 0;
#X connect 34 0 47 0;
#X connect 35 0 48 0;
#X connect 36 0 48 0;
#X connect 37 0 48 0;
#X connect 38 0 48 0;
#X connect 39 0 49 0;
#X connect 40 0 49 0;
#X connect 41 0 49 0;
#X connect 42 0 49 0;
#X connect 43 0 44 0;
#X connect 44 0 45 0;
#X connect 45 0 50 0;
#X connect 46 0 47 0;
#X connect 47 0 48 0;
#X connect 48 0 49 0;
#X connect 49 0 50 0;
#X connect 56 0 72 0;
#X connect 57 0 72 0;
#X connect 58 0 72 0;
#X connect 59 0 72 0;
#X connect 60 0 73 0;
#X connect 61 0 73 0;
#X connect 62 0 73 0;
#X connect 63 0 73 0;
#X connect 64 0 74 0;
#X connect 65 0 74 0;
#X connect 66 0 74 0;
#X connect 67 0 74 0;
#X connect 68 0 75 0;
#X connect 69 0 75 0;
#X connect 70 0 75 0;
#X connect 71 0 75 0;
#X connect 72 0 73 0;
#X connect 73 0 74 0;
#X connect 74 0 75 0;
